<?xml version="1.0" encoding="UTF-8" standalone="no"?>
<!DOCTYPE svg PUBLIC "-//W3C//DTD SVG 1.1//EN" "http://www.w3.org/Graphics/SVG/1.1/DTD/svg11.dtd">
<!-- Created with Vectornator (http://vectornator.io/) -->
<svg height="100%" stroke-miterlimit="10" style="fill-rule:nonzero;clip-rule:evenodd;stroke-linecap:round;stroke-linejoin:round;" version="1.1" viewBox="1.49998 0 180.658 65.9968" width="100%" xml:space="preserve" xmlns="http://www.w3.org/2000/svg" xmlns:xlink="http://www.w3.org/1999/xlink">
<defs/>
<g id="Untitled">
<path d="M76.388 12.4286L85.2564 12.4286C85.3459 12.4286 85.3459 12.5182 85.3459 12.5182L85.3459 50.7684C85.3459 50.858 85.2564 50.858 85.2564 50.858L76.388 50.858C76.2985 50.858 76.2985 50.7684 76.2985 50.7684L76.2985 12.6078C76.2985 12.5182 76.388 12.4286 76.388 12.4286Z" fill="#ffffff" fill-rule="nonzero" opacity="1" stroke="none"/>
<path d="M73.5215 12.4286C73.6111 12.4286 73.6111 12.5182 73.6111 12.6078L61.9658 31.5089C61.8763 31.6881 61.8763 31.8672 61.9658 32.0464L73.6111 50.7684C73.7007 50.858 73.6111 50.9476 73.6111 50.9476L62.6825 50.9476C62.5929 50.9476 62.5033 50.858 62.4137 50.7684L55.337 39.2127C55.2474 39.1231 55.1578 39.1231 55.1578 39.2127L48.529 50.7684C48.4394 50.858 48.3498 50.9476 48.2602 50.9476L37.9587 50.9476C37.8691 50.9476 37.7795 50.9476 37.8691 50.7684L49.9622 31.061C50.0518 30.8819 50.0518 30.6131 49.9622 30.434L39.3919 12.6078C39.3919 12.5182 39.3919 12.4286 39.4815 12.4286L50.0518 12.4286C50.1414 12.4286 50.231 12.5182 50.231 12.6078L56.5911 23.3572C56.6807 23.4468 56.7702 23.4468 56.8598 23.3572L63.3991 12.6078C63.4887 12.5182 63.4887 12.4286 63.6678 12.4286L73.5215 12.4286Z" fill="#ffffff" fill-rule="nonzero" opacity="1" stroke="none"/>
<path d="M130.225 30.2548L148.947 1.5L180.658 50.9476L159.069 50.9476L146.976 30.2548L130.225 30.2548Z" fill="#ffffff" fill-opacity="0" fill-rule="nonzero" opacity="1" stroke="#ffffff" stroke-linecap="butt" stroke-linejoin="round" stroke-width="3"/>
<path d="M34.6442 12.4286L26.403 12.4286C26.3134 12.4286 26.2238 12.5182 26.1342 12.6078L1.49998 50.858L1.49998 50.9476L11.5329 50.9476C11.6224 50.9476 11.712 50.9476 11.712 50.858L15.0264 45.6624C15.116 45.5728 15.116 45.5728 15.2056 45.5728L25.6863 45.5728C25.7759 45.5728 25.7759 45.6624 25.7759 45.6624L25.7759 50.7684C25.7759 50.858 25.7759 50.9476 25.8655 50.9476L34.6442 50.9476C34.7338 50.9476 34.7338 50.858 34.7338 50.7684L34.7338 12.6078C34.7338 12.5182 34.7338 12.4286 34.6442 12.4286ZM25.9551 37.9586L25.9551 37.9586L19.4158 38.0482C19.4158 38.0482 19.3262 38.0482 19.4158 37.9586L26.3134 26.9404C26.3134 26.8508 26.403 26.9404 26.403 26.9404L25.9551 37.9586Z" fill="#ffffff" fill-rule="nonzero" opacity="1" stroke="none"/>
<path d="M90.5415 50.9476L102.097 50.9476C103.53 50.9476 105.053 50.6788 106.487 50.2309C111.861 48.5289 114.638 43.2438 114.638 38.6752C114.638 31.4193 108.995 28.9111 102.276 26.0446C101.112 25.5071 99.679 24.8801 99.679 23.2677C99.679 21.6552 101.201 20.849 102.903 20.849L112.04 20.849C112.13 20.849 112.13 20.7594 112.13 20.7594L112.13 12.4286C112.13 12.339 112.04 12.339 112.04 12.339L102.456 12.339C94.483 12.339 89.7353 17.0867 89.7353 23.7156C89.7353 29.5382 93.408 32.3151 98.783 34.465C102.545 35.9879 104.964 36.6149 104.964 39.6606C104.964 41.273 103.978 42.7959 102.008 42.7959L90.4519 42.7959C90.3624 42.7959 90.3624 42.8855 90.3624 42.8855L90.3624 50.9476L90.5415 50.9476Z" fill="#ffffff" fill-rule="nonzero" opacity="1" stroke="none"/>
<path d="M119.655 12.2494C117.863 12.2494 116.43 13.6827 116.43 15.4743C116.43 17.2659 117.863 18.6991 119.655 18.6991C121.446 18.6991 122.88 17.2659 122.88 15.4743C122.88 13.6827 121.446 12.2494 119.655 12.2494ZM119.655 18.3408C118.042 18.3408 116.788 16.9971 116.788 15.4743C116.788 13.8619 118.132 12.6078 119.655 12.6078C121.267 12.6078 122.521 13.9514 122.521 15.4743C122.521 16.9971 121.267 18.3408 119.655 18.3408Z" fill="#ffffff" fill-rule="nonzero" opacity="1" stroke="none"/>
<path d="M121.178 17.2659L120.461 15.5639C120.909 15.4743 121.178 15.0264 121.178 14.5785C121.178 14.2202 120.998 13.9514 120.819 13.7723C120.55 13.5931 120.282 13.5035 119.923 13.5035L118.49 13.5035L118.49 17.2659L118.938 17.2659L118.938 15.6534L120.013 15.6534L120.73 17.2659L121.178 17.2659ZM118.938 15.2951L118.938 13.9514L119.834 13.9514C120.013 13.9514 120.192 13.9514 120.371 14.041C120.55 14.1306 120.64 14.3098 120.64 14.5785C120.64 14.7577 120.55 14.9368 120.461 15.0264C120.282 15.2056 120.103 15.2056 119.834 15.2056L118.938 15.2056L118.938 15.2951Z" fill="#ffffff" fill-rule="nonzero" opacity="1" stroke="none"/>
<path d="M9.20378 65.2802C8.12888 65.8177 7.32258 65.9968 6.24768 65.9968C3.29158 65.9968 1.76878 64.1157 1.76878 62.1449C1.76878 60.1742 3.47078 58.293 6.42688 58.293C7.50178 58.293 8.48718 58.4722 9.20378 58.9201L9.20378 60.6221C8.39758 60.1742 7.50178 59.8159 6.51638 59.8159C4.90398 59.8159 3.73948 60.8013 3.73948 62.0554C3.73948 63.399 4.90398 64.3844 6.51638 64.3844C7.50178 64.3844 8.21838 64.1157 9.29338 63.5782L9.29338 65.2802L9.20378 65.2802Z" fill="#ffffff" fill-rule="nonzero" opacity="1" stroke="none"/>
<path d="M20.3116 65.9968C17.4451 65.9968 15.9222 64.0261 15.9222 62.1449C15.9222 60.3534 17.4451 58.293 20.3116 58.293C23.1781 58.293 24.701 60.3534 24.701 62.1449C24.701 64.1157 23.0886 65.9968 20.3116 65.9968ZM20.3116 59.9055C18.8783 59.9055 17.893 60.8013 17.893 62.1449C17.893 63.4886 18.8783 64.3844 20.3116 64.3844C21.7449 64.3844 22.7302 63.4886 22.7302 62.1449C22.7302 60.8013 21.7449 59.9055 20.3116 59.9055Z" fill="#ffffff" fill-rule="nonzero" opacity="1" stroke="none"/>
<path d="M37.9587 58.4722L39.6607 58.4722L39.6607 65.9968L37.7795 65.9968L37.7795 61.3387L35.7192 63.6678L35.4505 63.6678L33.3901 61.3387L33.3901 65.9968L31.509 65.9968L31.509 58.4722L33.211 58.4722L35.7192 61.2491L37.9587 58.4722Z" fill="#ffffff" fill-rule="nonzero" opacity="1" stroke="none"/>
<path d="M53.8141 58.4722L55.5161 58.4722L55.5161 65.9968L53.635 65.9968L53.635 61.3387L51.5747 63.6678L51.3059 63.6678L49.2456 61.3387L49.2456 65.9968L47.1853 65.9968L47.1853 58.4722L48.8873 58.4722L51.3955 61.2491L53.8141 58.4722Z" fill="#ffffff" fill-rule="nonzero" opacity="1" stroke="none"/>
<path d="M70.1175 58.4722L70.1175 62.6824C70.1175 65.1906 68.4155 65.9968 66.2656 65.9968C64.0261 65.9968 62.4137 65.0115 62.4137 62.6824L62.4137 58.3826L64.2949 58.3826L64.2949 62.6824C64.2949 63.7574 65.1011 64.3844 66.176 64.3844C67.1614 64.3844 68.1468 63.8469 68.1468 62.5033L68.1468 58.293L70.1175 58.293L70.1175 58.4722Z" fill="#ffffff" fill-rule="nonzero" opacity="1" stroke="none"/>
<path d="M84.9876 65.9073L83.3752 65.9073L79.0754 61.07L79.0754 65.9073L77.1943 65.9073L77.1943 58.3826L78.9858 58.3826L83.1065 62.9511L83.1065 58.3826L84.9876 58.3826L84.9876 65.9073Z" fill="#ffffff" fill-rule="nonzero" opacity="1" stroke="none"/>
<path d="M94.214 65.9073L92.333 65.9073L92.333 58.3826L94.214 58.3826L94.214 65.9073Z" fill="#ffffff" fill-rule="nonzero" opacity="1" stroke="none"/>
<path d="M108.009 65.2802C106.934 65.8177 106.128 65.9968 104.964 65.9968C102.008 65.9968 100.485 64.1157 100.485 62.1449C100.485 60.1742 102.187 58.293 105.143 58.293C106.218 58.293 107.203 58.4722 107.92 58.9201L107.92 60.6221C107.114 60.1742 106.218 59.8159 105.232 59.8159C103.62 59.8159 102.456 60.8013 102.456 62.0554C102.456 63.399 103.62 64.3844 105.232 64.3844C106.218 64.3844 106.934 64.1157 108.009 63.5782L108.009 65.2802Z" fill="#ffffff" fill-rule="nonzero" opacity="1" stroke="none"/>
<path d="M121.805 65.9073L119.744 65.9073L119.117 64.3844L115.713 64.3844L115.176 65.9073L113.115 65.9073L116.251 58.3826L118.49 58.3826L121.805 65.9073ZM117.326 60.1742L116.161 63.0407L118.49 63.0407L117.326 60.1742Z" fill="#ffffff" fill-rule="nonzero" opacity="1" stroke="none"/>
<path d="M133.092 59.8159L130.315 59.8159L130.315 65.9073L128.433 65.9073L128.433 59.8159L125.656 59.8159L125.656 58.4722L133.181 58.4722L133.181 59.8159L133.092 59.8159Z" fill="#ffffff" fill-rule="nonzero" opacity="1" stroke="none"/>
<path d="M140.885 65.9073L139.004 65.9073L139.004 58.3826L140.885 58.3826L140.885 65.9073Z" fill="#ffffff" fill-rule="nonzero" opacity="1" stroke="none"/>
<path d="M151.097 65.9968C148.23 65.9968 146.708 64.0261 146.708 62.1449C146.708 60.3534 148.23 58.293 151.097 58.293C153.963 58.293 155.486 60.3534 155.486 62.1449C155.486 64.1157 153.874 65.9968 151.097 65.9968ZM151.097 59.9055C149.664 59.9055 148.678 60.8013 148.678 62.1449C148.678 63.4886 149.664 64.3844 151.097 64.3844C152.53 64.3844 153.516 63.4886 153.516 62.1449C153.516 60.8013 152.53 59.9055 151.097 59.9055Z" fill="#ffffff" fill-rule="nonzero" opacity="1" stroke="none"/>
<path d="M169.013 65.9073L167.4 65.9073L163.101 61.07L163.101 65.9073L161.219 65.9073L161.219 58.3826L163.011 58.3826L167.132 62.9511L167.132 58.3826L169.013 58.3826L169.013 65.9073Z" fill="#ffffff" fill-rule="nonzero" opacity="1" stroke="none"/>
<path d="M180.21 60.3534C179.135 59.9055 178.419 59.7263 177.791 59.7263C177.075 59.7263 176.627 59.995 176.627 60.3534C176.627 61.5179 180.568 61.1596 180.568 63.7574C180.568 65.1906 179.314 65.9968 177.612 65.9968C176.269 65.9968 175.642 65.6385 174.835 65.2802L174.835 63.6678C175.91 64.3844 176.627 64.6531 177.433 64.6531C178.15 64.6531 178.598 64.3844 178.598 63.9365C178.598 62.6824 174.656 63.1303 174.656 60.4429C174.656 59.1888 175.821 58.293 177.612 58.293C178.508 58.293 179.225 58.4722 180.21 58.8305L180.21 60.3534Z" fill="#ffffff" fill-rule="nonzero" opacity="1" stroke="none"/>
<path d="M143.751 33.838L154.143 50.9476L117.236 50.9476L128.433 33.838L143.751 33.838Z" fill="#ffffff" fill-opacity="0" fill-rule="nonzero" opacity="1" stroke="#ffffff" stroke-linecap="butt" stroke-linejoin="round" stroke-width="3"/>
</g>
</svg>
