<?xml version="1.0" encoding="UTF-8" standalone="no"?>
<!DOCTYPE svg PUBLIC "-//W3C//DTD SVG 1.1//EN" "http://www.w3.org/Graphics/SVG/1.1/DTD/svg11.dtd">
<!-- Created with Vectornator (http://vectornator.io/) -->
<svg height="100%" stroke-miterlimit="10" style="fill-rule:nonzero;clip-rule:evenodd;stroke-linecap:round;stroke-linejoin:round;" version="1.1" viewBox="4.5 2 231.077 156.043" width="100%" xml:space="preserve" xmlns="http://www.w3.org/2000/svg" xmlns:xlink="http://www.w3.org/1999/xlink">
<defs/>
<g id="Untitled">
<path d="M68.7871 125.7C64.4173 127.608 60.3794 129.893 55.27 130.763C56.1986 128.545 57.6566 127.666 59.0894 126.717C62.8332 124.234 66.6106 121.792 70.2409 119.145C74.2578 116.221 77.5394 112.603 79.6361 108.015C79.8336 107.586 80.2244 107.246 80.5773 106.8C82.8967 107.792 82.9345 110.443 84.8715 111.729C83.111 117.633 80.258 123.024 78.5226 128.961C78.9554 128.633 79.447 128.356 79.8168 127.965C82.5563 125.07 85.2539 122.129 88.0102 119.246C88.8506 118.368 89.7456 117.456 90.7876 116.872C92.5692 115.876 93.3087 114.427 92.9221 112.549C92.1238 108.674 94.4179 106.393 97.0104 104.279C98.729 102.88 99.6323 102.863 102.3 103.729C102.515 104.59 102.758 105.548 102.994 106.49C105.859 108.372 108.078 105.817 111.044 105.523C111.813 105.977 112.927 106.637 113.956 107.246C113.952 109.355 112.708 110.662 111.923 112.179C110.469 114.981 109.12 117.839 107.754 120.683C107.641 120.918 107.738 121.255 107.738 121.713C108.183 121.713 108.62 121.847 108.906 121.692C111.154 120.486 113.347 119.183 115.603 117.998C117.414 117.049 118.46 115.528 119.473 113.805C121.591 110.204 123.788 106.628 126.238 103.246C128.351 100.326 131.167 98.0692 134.469 96.5019C138.192 94.733 141.226 95.6112 143.755 99.2415C143.398 103.384 141.011 106.342 137.726 108.653C135.805 110.006 133.73 111.128 131.717 112.347C130.847 112.872 129.965 113.376 129.083 113.893C128.335 116.212 126.633 118.162 126.965 120.763C129.91 120.83 136.112 117.536 146.247 110.582C146.654 109.368 147.293 107.956 147.6 106.473C148.827 100.54 152.117 96.0019 157.008 92.6363C159.432 90.9682 162.1 89.6404 164.693 88.2328C166.718 87.1362 168.638 87.5227 170.399 88.9177C171.277 89.611 172.155 90.3085 173.197 91.1363C173.184 94.5439 171.567 97.1784 169.285 99.9054C168.386 99.107 167.739 98.5356 167.083 97.9557C167.373 96.3171 167.63 94.8758 167.907 93.3086C162.083 94.9179 155.919 104.569 155.403 112.872C161.945 110.166 167.991 106.842 174.705 103.926C177.987 98.4263 181.432 92.6489 185.021 86.6404C183.231 85.9051 181.756 85.3 180.046 84.5941C178.479 83.0268 177.382 81.052 177.928 78.4427C179.029 76.8166 180.693 76.3838 182.487 76.5057C186.365 76.7662 189.563 74.8334 192.92 73.4174C193.643 73.1107 194.353 72.5476 194.832 71.9258C196.689 69.5055 198.5 67.0475 200.231 64.5348C201.319 62.955 202.172 61.2028 204 59.9297C206.156 63.3919 204.601 67.0055 205.017 70.6316C208.664 70.1694 212.202 69.3879 215.719 68.4173C217.37 67.9635 219.089 67.6904 220.795 67.5181C224.858 67.1063 228.934 66.808 233.001 66.4592C233.883 66.3836 234.812 65.9382 235.577 66.8416C235.329 68.4593 233.879 68.4299 232.808 68.787C229.324 69.9551 225.77 70.9131 222.324 72.1779C218.206 73.6905 214.185 75.4636 210.101 77.0687C205.929 78.7074 201.727 80.2789 196.908 82.1235C192.735 87.8715 189.223 94.7414 185.912 101.91C187.63 102.645 188.752 101.708 189.718 100.977C192.899 98.5776 196.643 97.7078 200.353 96.6238C202.588 95.9725 204.698 94.8927 206.866 94.0187C207.652 93.6993 208.311 92.7413 209.643 93.712C200.916 101.384 191.769 108.284 181.487 114.254C180.491 114.254 179.079 114.254 177.403 114.254C175.205 113.124 174.176 110.746 173.105 108.536C170.281 108.742 163.323 113.044 154.625 119.885C151.02 119.721 149.52 116.091 146.558 114.733C142.209 115.754 139.192 119.007 135.604 121.284C132.078 123.519 128.675 125.952 124.91 128.507C121.986 126.62 117.75 125.797 117.818 120.133C111.423 125.087 105.653 129.549 100.91 135.234C97.6449 134.725 96.7962 131.583 94.4516 129.973C95.897 124.452 99.292 119.893 101.8 114.523C98.2248 114.154 95.1953 114.67 92.9851 117.225C89.6447 121.082 86.4976 125.108 83.3253 129.103C79.8378 133.499 76.4133 137.948 72.7746 142.608C69.2661 142.314 66.1316 141.066 64.4971 137.814C64.3837 133.003 67.514 129.801 68.7871 125.7ZM139.23 99.2961C135.965 101.145 134.923 104.422 133.394 107.368C135.81 106.044 137.818 104.271 139.688 102.363C140.461 101.573 140.469 100.544 139.23 99.2961Z" fill="#ffffff" fill-rule="nonzero" opacity="1" stroke="none"/>
<path d="M20.971 157.861C18.244 158.499 16.5591 157.352 14.849 156.041C13.6851 154.003 12.496 151.915 11.0884 149.453C15.975 148.995 18.5129 145.549 21.7315 143.171C23.2105 142.079 24.5971 140.86 26.0299 139.705C35.1856 132.343 43.0639 123.801 49.4254 113.923C51.1271 111.28 52.396 108.33 53.6145 105.418C54.5095 103.275 54.1398 102.704 52.0347 101.153C46.2824 101.994 41.2781 103.843 34.4208 107.721C33.0847 111.679 31.7485 115.86 30.2527 119.982C28.9627 123.532 27.4585 127.003 26.0929 130.528C25.4711 132.137 24.8198 133.755 24.4248 135.427C23.992 137.268 23.5172 138.953 21.7483 140.024C21.1096 140.411 20.6978 141.184 19.8533 142.158C19.4751 141.104 18.9793 140.398 19.0129 139.713C19.1684 136.562 19.223 133.368 19.7734 130.276C20.5382 125.961 21.7399 121.721 22.6853 117.435C22.9416 116.276 22.9416 115.065 23.1055 113.376C21.971 114.007 21.2567 114.309 20.6432 114.755C17.5507 117.007 14.3069 118.771 10.3363 118.914C9.39927 118.948 8.47068 119.629 7.55889 120.057C6.59248 120.511 5.64708 121.011 4.5 121.25C5.33615 119.49 6.24374 117.91 7.69755 116.671C9.48751 115.149 11.143 113.46 12.975 111.998C15.765 109.775 18.6558 107.683 21.5172 105.544C22.0088 105.179 22.5256 104.838 23.0676 104.553C26.5677 102.704 28.677 100.095 28.74 95.8592C28.7694 93.8927 29.7443 91.9389 30.3661 89.712C30.0384 89.0607 29.5678 88.1237 29.0426 87.0774C30.2023 86.3463 31.1308 85.7623 32.0006 85.2119C35.1772 84.7286 37.9209 85.2665 40.0008 87.88C39.4966 90.4263 39.005 92.8969 38.4629 95.6407C41.5428 95.5398 44.1605 94.7709 46.7867 94.107C47.6774 93.8843 48.5346 93.3507 49.417 93.3213C50.8078 93.2751 52.4717 93.0944 53.5599 93.7457C57.5348 96.1323 61.0013 99.0693 62.6357 103.708C63.4761 106.099 63.3416 108.238 62.2408 110.49C59.0474 117.036 55.27 123.229 50.9002 129.045C47.8287 133.133 44.5807 137.083 41.3622 141.058C40.6605 141.923 39.7907 142.663 38.9545 143.411C36.3621 145.726 33.757 148.024 31.1434 150.318C30.6098 150.789 30.093 151.339 29.4711 151.642C26.219 153.23 23.3029 155.264 20.971 157.861Z" fill="#ffffff" fill-rule="nonzero" opacity="1" stroke="none"/>
<path d="M84.703 96.4725C83.0853 95.1111 81.4551 93.7455 79.6567 92.2329C79.6273 91.5984 79.5937 90.8127 79.5601 90.0648C79.9424 89.8253 80.1777 89.5732 80.4508 89.527C84.0476 88.8589 87.6443 88.174 91.2536 87.5857C94.2621 87.0983 97.2747 86.8 100.166 85.6151C102.636 84.6025 105.279 85.3336 108.178 85.2412C105.376 88.4051 90.0309 95.6069 84.703 96.4725Z" fill="#ffffff" fill-rule="nonzero" opacity="1" stroke="none"/>
<path d="M98.4182 17.597C98.4182 26.1938 91.439 33.1562 82.838 33.1562C74.237 33.1562 67.2578 26.1938 67.2578 17.597C67.2578 8.97915 74.2412 2 82.838 2C91.439 2 98.4182 8.97915 98.4182 17.597Z" fill="#ffffff" fill-rule="nonzero" opacity="1" stroke="none"/>
<path d="M166.97 17.597C166.97 26.1938 159.991 33.1562 151.39 33.1562C142.789 33.1562 135.81 26.1938 135.81 17.597C135.814 8.97915 142.793 2 151.39 2C159.991 2 166.97 8.97915 166.97 17.597Z" fill="#ffffff" fill-rule="nonzero" opacity="1" stroke="none"/>
<path d="M132.684 17.597C132.684 26.1938 125.705 33.1562 117.104 33.1562C108.507 33.1562 101.523 26.1938 101.523 17.597C101.528 8.97915 108.507 2 117.108 2C125.721 2 132.684 8.97915 132.684 17.597Z" fill="#ffffff" fill-rule="nonzero" opacity="1" stroke="none"/>
<path d="M87.8378 39.0303L87.8378 42.4841L87.3126 42.4841L86.0016 40.4295L82.9637 40.4295L82.9637 44.6312L84.3461 44.6312L85.3125 43.0136L85.8209 43.0136L85.8209 47.5935L85.3125 47.5935L84.3461 46.0304L82.9637 46.0304L82.9637 50.5936L85.947 50.5936L87.363 48.1019L87.8546 48.1019L87.8546 51.8835L78.2031 51.8835L78.2031 51.4087L79.5477 50.5011L79.5477 40.4127L78.2031 39.5051L78.2031 39.0303L87.8378 39.0303Z" fill="#ffffff" fill-rule="nonzero" opacity="1" stroke="none"/>
<path d="M95.0357 38.7568C96.9097 38.7568 97.9811 39.0468 98.8341 39.4837L98.8341 43.009L98.3089 43.009L97.1072 40.6644C96.7416 40.4838 96.145 40.3913 95.5609 40.3913C93.6701 40.3913 92.6869 41.9544 92.6869 45.425C92.6869 48.8789 93.6701 50.4588 95.5609 50.4588C96.5063 50.4588 96.7416 50.3495 97.1072 50.1689L98.3089 47.8411L98.8341 47.8411L98.8341 51.3664C97.9979 51.7319 96.9055 52.1101 95.0357 52.1101C91.6911 52.1101 89.002 49.7487 89.002 45.4208C89.002 41.1392 91.6911 38.7568 95.0357 38.7568Z" fill="#ffffff" fill-rule="nonzero" opacity="1" stroke="none"/>
<path d="M101.216 40.4128L99.8716 39.5053L99.8716 39.0347L105.817 39.0347L105.817 39.5053L104.636 40.4128L104.636 48.0475C104.636 49.1946 105.09 49.9761 106.199 49.9761C107.145 49.9761 107.8 49.5391 108.183 49.0139L108.183 40.4128L107.002 39.5053L107.002 39.0347L112.964 39.0347L112.964 39.5053L111.62 40.4128L111.62 50.5013L112.964 51.4089L112.964 51.8795L108.548 51.8795L108.548 50.5517L108.237 50.5517C107.565 51.3501 106.657 52.1316 105.019 52.1316C102.254 52.1316 101.199 50.4761 101.199 48.1861L101.199 40.4128L101.216 40.4128Z" fill="#ffffff" fill-rule="nonzero" opacity="1" stroke="none"/>
<path d="M127.158 39.5051L127.158 39.0303L133.301 39.0303L133.301 39.5051L131.94 40.4127L131.94 50.5011L133.301 51.4087L133.301 51.8835L127.158 51.8835L127.158 51.4087L128.524 50.5011L128.524 40.4127L127.158 39.5051Z" fill="#ffffff" fill-rule="nonzero" opacity="1" stroke="none"/>
<path d="M137.94 50.5011L137.94 40.4295L136.339 40.4295L134.868 43.1396L134.339 43.1396L134.339 39.0303L144.919 39.0303L144.919 43.1396L144.411 43.1396L142.94 40.4295L141.356 40.4295L141.356 50.5011L142.7 51.4087L142.7 51.8835L136.574 51.8835L136.574 51.4087L137.94 50.5011Z" fill="#ffffff" fill-rule="nonzero" opacity="1" stroke="none"/>
<path d="M147.575 47.3921L148.865 42.6273L149.046 42.6273L150.39 47.3921L147.575 47.3921ZM154.882 50.5014L150.882 38.8667L148.499 39.3037L145.046 50.3544L143.718 51.409L143.718 51.8796L147.899 51.8796L147.899 51.409L146.772 50.3544L147.172 48.8627L150.806 48.8627L151.26 50.4972L150.096 51.4048L150.096 51.8754L156.13 51.8754L156.13 51.4048L154.882 50.5014Z" fill="#ffffff" fill-rule="nonzero" opacity="1" stroke="none"/>
<path d="M72.6956 52.1565C70.8216 52.1565 69.5695 51.7027 68.8594 51.3035L68.8594 48.1774L69.3678 48.1774L70.5485 50.2867C71.0191 50.4884 71.8216 50.5976 72.6032 50.5976C74.0402 50.5976 74.4393 49.9085 74.4393 49.1984C74.4393 48.1438 73.7839 47.7992 72.2208 46.9967C71.9645 46.8706 71.2922 46.5051 71.0737 46.379C69.6913 45.5051 68.872 44.3622 68.872 42.6899C68.872 40.2907 70.5821 38.7822 73.3805 38.7822C74.9603 38.7822 76.1074 39.0553 76.5612 39.2738L76.5612 42.3663L76.0528 42.3663L74.9604 40.568C74.6704 40.4587 74.141 40.3327 73.3595 40.3327C72.3048 40.3327 71.6494 40.7529 71.6494 41.589C71.6494 42.6268 72.3763 42.9714 73.3763 43.5722C73.6494 43.7361 74.6494 44.2067 74.994 44.4084C76.2503 45.1731 77.3386 45.7698 77.3386 47.8791C77.368 50.4464 75.8217 52.1565 72.6956 52.1565Z" fill="#ffffff" fill-rule="nonzero" opacity="1" stroke="none"/>
<path d="M160.389 52.1565C158.515 52.1565 157.263 51.7027 156.553 51.3035L156.553 48.1774L157.062 48.1774L158.242 50.2867C158.713 50.4884 159.515 50.5976 160.297 50.5976C161.734 50.5976 162.133 49.9085 162.133 49.1984C162.133 48.1438 161.478 47.7992 159.915 46.9967C159.658 46.8706 158.986 46.5051 158.768 46.379C157.385 45.5051 156.566 44.3622 156.566 42.6899C156.566 40.2907 158.276 38.7822 161.074 38.7822C162.654 38.7822 163.784 39.0553 164.255 39.2738L164.255 42.3663L163.73 42.3663L162.637 40.568C162.347 40.4587 161.818 40.3327 161.037 40.3327C159.982 40.3327 159.326 40.7529 159.326 41.589C159.326 42.6268 160.053 42.9714 161.053 43.5722C161.326 43.7361 162.326 44.2067 162.671 44.4084C163.927 45.1731 165.016 45.7698 165.016 47.8791C165.062 50.4464 163.516 52.1565 160.389 52.1565Z" fill="#ffffff" fill-rule="nonzero" opacity="1" stroke="none"/>
<path d="M118.961 44.8833L120.125 44.8833C121.381 44.8833 121.742 44.1943 121.742 42.6816C121.742 41.1732 121.377 40.4799 120.125 40.4799L118.961 40.4799L118.961 44.8833ZM120.814 39.0303C123.633 39.0303 125.066 40.1942 125.066 42.4463C125.066 44.0808 123.973 45.1565 121.94 45.4842L121.94 45.7195C122.847 45.9212 123.978 46.375 124.41 47.7195L125.246 50.5011L126.683 51.4087L126.683 51.8793L121.956 51.8793L120.755 47.2615C120.553 46.5346 120.284 46.333 119.629 46.333L118.956 46.333L118.956 50.4969L120.372 51.4045L120.372 51.8751L114.175 51.8751L114.175 51.4045L115.536 50.4969L115.536 40.4127L114.175 39.5051L114.175 39.0345L120.814 39.0303Z" fill="#ffffff" fill-rule="nonzero" opacity="1" stroke="none"/>
</g>
</svg>
