<svg id="B3_logga" data-name="B3 logga" xmlns="http://www.w3.org/2000/svg" viewBox="0 0 679.54 230.87"><defs><style>.cls-1{fill:#fff;}</style></defs><path class="cls-1" d="M418,229.52a66.9,66.9,0,0,0-17.61-2.35h-1.53c0,3.1-2,6.6-4.62,10.21-4.51,6.3-10.69,12.93-10.69,18.35v10h16.84c21.13,0,34.44,21.15,34.44,42.46a38.27,38.27,0,1,1-76.53,0l-38.27,7.72c0,42.64,34.26,69.48,76.53,69.48s76.53-34.56,76.53-77.2C473.12,271.78,450.88,238.44,418,229.52Z" transform="translate(-154.39 -154.55)"/><path class="cls-1" d="M231.59,232.06A77.18,77.18,0,0,0,193,242.32V154.55H183c-8.53,0-20,14.94-28.56,15V308.74c0,42.35,34.56,76.68,77.2,76.68s77.19-34.33,77.19-76.68S274.22,232.06,231.59,232.06Zm6.85,114.21h-6.85a38.6,38.6,0,0,1-38.6-38.6V282.79c.62-.59,1.23-1.16,1.85-1.72a45.1,45.1,0,0,1,75.34,33.46A31.74,31.74,0,0,1,238.44,346.27Z" transform="translate(-154.39 -154.55)"/><path class="cls-1" d="M359.13,222.17a38.39,38.39,0,0,1,37-28.29h1.51c0-8.38,15.4-20.15,15.4-28.55v-10H396.12c-41.53,0-75.33,25.73-76.66,66.79,0,.83-.06,1.66-.06,2.51l38.36,7.7A38.59,38.59,0,0,1,359.13,222.17Z" transform="translate(-154.39 -154.55)"/><path class="cls-1" d="M549.63,286.14a37.69,37.69,0,0,1,15.8,3.11,30.8,30.8,0,0,1,11.6,9.2l-7.7,8.9a27,27,0,0,0-9-7.65,24.53,24.53,0,0,0-11.25-2.45,18.75,18.75,0,0,0-7,1.1,8.59,8.59,0,0,0-4,2.9,6.87,6.87,0,0,0-1.25,4,5.84,5.84,0,0,0,2.1,4.55q2.1,1.84,7.2,3.05l12.3,2.79q9.81,2.21,14.05,6.56a15.39,15.39,0,0,1,4.25,11.25,18.36,18.36,0,0,1-3.4,11.15,21.21,21.21,0,0,1-9.5,7.1,37.38,37.38,0,0,1-14,2.44,45.8,45.8,0,0,1-12.65-1.64A38.77,38.77,0,0,1,527,348a30.66,30.66,0,0,1-7.5-6.7l7.8-9.3a25.85,25.85,0,0,0,5.7,5.69,27.9,27.9,0,0,0,7.75,4,28.93,28.93,0,0,0,9.15,1.45,22.22,22.22,0,0,0,7-.95,9.2,9.2,0,0,0,4.3-2.71,6.41,6.41,0,0,0,1.45-4.25,6.21,6.21,0,0,0-1.75-4.44q-1.74-1.86-6.45-2.85l-13.4-3a41.58,41.58,0,0,1-9.95-3.65,16.23,16.23,0,0,1-6.3-5.81,16,16,0,0,1-2.15-8.44,18.4,18.4,0,0,1,3.2-10.6,21.79,21.79,0,0,1,9.25-7.46A35.08,35.08,0,0,1,549.63,286.14Z" transform="translate(-154.39 -154.55)"/><path class="cls-1" d="M599.73,281.25v71.89H586V281.25Zm37.2,21.89-23.1,24.11-2.7,1.3-15,16.09-.2-14.59,25.4-26.91Zm-21.2,15.91,22.4,34.09h-15.5l-16.3-26.09Z" transform="translate(-154.39 -154.55)"/><path class="cls-1" d="M652.13,296q-4.3,0-6.4-1.85a6.9,6.9,0,0,1-2.1-5.46,7,7,0,0,1,2.1-5.54c1.4-1.24,3.53-1.85,6.4-1.85s5,.61,6.4,1.85a7,7,0,0,1,2.1,5.54,6.9,6.9,0,0,1-2.1,5.46Q656.43,295.94,652.13,296Zm6.8,7.19v50h-13.7v-50Z" transform="translate(-154.39 -154.55)"/><path class="cls-1" d="M684.43,281.25v56.5q0,3.5,1.2,4.89a5,5,0,0,0,4,1.41,13.41,13.41,0,0,0,2.8-.25c.73-.17,1.67-.42,2.8-.75l-1.2,9a14.6,14.6,0,0,1-4.25,1.55,24.3,24.3,0,0,1-5,.54q-7.31,0-10.65-3.54t-3.35-11.35v-58Z" transform="translate(-154.39 -154.55)"/><path class="cls-1" d="M713.83,281.25v56.5q0,3.5,1.2,4.89a5,5,0,0,0,4,1.41,13.41,13.41,0,0,0,2.8-.25c.73-.17,1.67-.42,2.8-.75l-1.2,9a14.6,14.6,0,0,1-4.25,1.55,24.3,24.3,0,0,1-5,.54q-7.3,0-10.65-3.54t-3.35-11.35v-58Z" transform="translate(-154.39 -154.55)"/><path class="cls-1" d="M753.43,354.14a29,29,0,0,1-13.75-3.09,21.77,21.77,0,0,1-9-8.91,32.22,32.22,0,0,1,0-28,21.84,21.84,0,0,1,9-8.89,27.21,27.21,0,0,1,13.15-3.11,25.44,25.44,0,0,1,12.9,3.06,20.66,20.66,0,0,1,8.1,8.3,25.07,25.07,0,0,1,2.8,11.95c0,1.33,0,2.6-.1,3.8s-.17,2.26-.3,3.2h-39.9V323h33.9l-6.6,2.4q0-6.32-2.85-9.71a9.94,9.94,0,0,0-8-3.39,11.67,11.67,0,0,0-6.55,1.8,10.91,10.91,0,0,0-4.15,5.34,24.53,24.53,0,0,0-1.4,9,21.33,21.33,0,0,0,1.55,8.75,11.11,11.11,0,0,0,4.4,5.15,15.15,15.15,0,0,0,13.95,0,11.54,11.54,0,0,0,4.2-4.7l10.9,4.2a17.64,17.64,0,0,1-4.85,6.7,22.42,22.42,0,0,1-7.7,4.25A30.86,30.86,0,0,1,753.43,354.14Z" transform="translate(-154.39 -154.55)"/><path class="cls-1" d="M804.53,354.14a20.1,20.1,0,0,1-11-3.09,20.8,20.8,0,0,1-7.6-8.91,32.07,32.07,0,0,1-2.75-13.89A31.49,31.49,0,0,1,786,314.1a21.14,21.14,0,0,1,7.85-8.9A20.76,20.76,0,0,1,805,302.14a15.83,15.83,0,0,1,10.9,3.81,17.74,17.74,0,0,1,5.6,9.8l-1.3,1.6v-36.1h13.7v71.89h-12.3l-.9-15.19,1.7.8a18.27,18.27,0,0,1-3.2,8.14,17.15,17.15,0,0,1-6.3,5.36A18.64,18.64,0,0,1,804.53,354.14Zm4-10.5a10.45,10.45,0,0,0,6.2-1.84,12,12,0,0,0,4-5.45,23.13,23.13,0,0,0,1.45-8.6,21.18,21.18,0,0,0-1.4-8.15,11.4,11.4,0,0,0-4-5.15A11.46,11.46,0,0,0,800,316.6q-3.15,3.94-3.15,11.54t3.1,11.56A10.31,10.31,0,0,0,808.53,343.64Z" transform="translate(-154.39 -154.55)"/></svg>