<?xml version="1.0" encoding="UTF-8" standalone="no"?>
<svg
   stroke-miterlimit="10"
   style="fill-rule:nonzero;clip-rule:evenodd;stroke-linecap:round;stroke-linejoin:round;"
   version="1.1"
   viewBox="0 0 240 240"
   xml:space="preserve"
   xmlns="http://www.w3.org/2000/svg"
   xmlns:svg="http://www.w3.org/2000/svg">
<defs
   id="defs2">
<linearGradient
   gradientTransform="matrix(50.1204 -23.6812 23.6812 50.1204 105.061 231.004)"
   gradientUnits="userSpaceOnUse"
   id="LinearGradient"
   x1="0"
   x2="1"
   y1="0"
   y2="0">
<stop
   offset="0"
   stop-color="#d83333"
   id="stop1" />
<stop
   offset="1"
   stop-color="#f041ff"
   id="stop2" />
</linearGradient>
    <style
   id="style2">
.icon { display: none }
.icon:target { display: inline;}
</style>








<linearGradient
   id="paint1_linear"
   x1="194.651"
   y1="8.8181801"
   x2="236.076"
   y2="292.98901"
   gradientUnits="userSpaceOnUse"
   gradientTransform="matrix(0.31983096,0,0,0.31983096,81.099853,90.869872)"><stop
     stop-color="#FFEA83"
     id="stop4" /><stop
     offset="0.0833333"
     stop-color="#FFDD35"
     id="stop5" /><stop
     offset="1"
     stop-color="#FFA800"
     id="stop6" /></linearGradient><linearGradient
   id="paint0_linear"
   x1="6.0001702"
   y1="32.999901"
   x2="235"
   y2="344"
   gradientUnits="userSpaceOnUse"
   gradientTransform="matrix(0.31983096,0,0,0.31983096,81.099853,90.869872)"><stop
     stop-color="#41D1FF"
     id="stop2-8" /><stop
     offset="1"
     stop-color="#BD34FE"
     id="stop3" /></linearGradient></defs>
<g
   class="icon"
   id="icon-transition">
<path
   d="m 93.6966,134.486 c 0,-10.181 8.4224,-18.435 18.8124,-18.435 h 101.038 c 10.39,0 18.813,8.254 18.813,18.435 v 53.374 c 0,10.18 -8.423,18.434 -18.813,18.434 H 112.509 c -10.39,0 -18.8124,-8.254 -18.8124,-18.434 z"
   fill="#1b8eff"
   fill-rule="nonzero"
   opacity="1"
   stroke="none"
   id="path2" />
<path
   d="m 54.2831,94.8793 c 0,-10.1809 8.4228,-18.4342 18.8128,-18.4342 H 174.134 c 10.39,0 18.813,8.2533 18.813,18.4342 v 53.3737 c 0,10.181 -8.423,18.434 -18.813,18.434 H 73.0959 c -10.39,0 -18.8128,-8.253 -18.8128,-18.434 z"
   fill="#1b8eff"
   fill-opacity="0.753066"
   fill-rule="nonzero"
   opacity="1"
   stroke="none"
   id="path3" />
<path
   d="m 13.3052,56.6781 c 0,-10.1809 8.4227,-18.4342 18.8128,-18.4342 h 101.038 c 10.39,0 18.813,8.2533 18.813,18.4342 v 53.3739 c 0,10.181 -8.423,18.434 -18.813,18.434 H 32.118 c -10.3901,0 -18.8128,-8.253 -18.8128,-18.434 z"
   fill="#1b8eff"
   fill-opacity="0.446075"
   fill-rule="nonzero"
   opacity="1"
   stroke="none"
   id="path4" />
</g>
<g
   class="icon"
   id="icon-multiplication"
   >
<path
   d="M 19.5727,22.5329 H 49.4824 V 52.4426 H 19.5727 Z"
   fill="#ff8c00"
   fill-rule="nonzero"
   opacity="1"
   stroke="none"
   id="path5" />
<path
   d="M 63.5341,22.5329 H 93.4438 V 52.4426 H 63.5341 Z"
   fill="#ff8c00"
   fill-rule="nonzero"
   opacity="1"
   stroke="none"
   id="path6" />
<path
   d="m 106.585,22.5329 h 29.91 v 29.9097 h -29.91 z"
   fill="#ff8c00"
   fill-rule="nonzero"
   opacity="1"
   stroke="none"
   id="path7" />
<path
   d="m 149.289,22.5329 h 29.91 v 29.9097 h -29.91 z"
   fill="#ff8c00"
   fill-rule="nonzero"
   opacity="1"
   stroke="none"
   id="path8" />
<path
   d="m 192.518,22.5329 h 29.909 v 29.9097 h -29.909 z"
   fill="#ff8c00"
   fill-rule="nonzero"
   opacity="1"
   stroke="none"
   id="path9" />
<path
   d="M 19.5727,64.289 H 49.4824 V 94.1987 H 19.5727 Z"
   fill="#1b8eff"
   fill-rule="nonzero"
   opacity="1"
   stroke="none"
   id="path10" />
<path
   d="M 63.5341,64.289 H 93.4438 V 94.1987 H 63.5341 Z"
   fill="#00ffff"
   fill-rule="nonzero"
   opacity="1"
   stroke="none"
   id="path11" />
<path
   d="m 106.585,64.289 h 29.91 v 29.9097 h -29.91 z"
   fill="#00ffff"
   fill-rule="nonzero"
   opacity="1"
   stroke="none"
   id="path12" />
<path
   d="m 149.289,64.289 h 29.91 v 29.9097 h -29.91 z"
   fill="#00ffff"
   fill-rule="nonzero"
   opacity="1"
   stroke="none"
   id="path13" />
<path
   d="m 19.5727,106.045 h 29.9097 v 29.91 H 19.5727 Z"
   fill="#1b8eff"
   fill-rule="nonzero"
   opacity="1"
   stroke="none"
   id="path14" />
<path
   d="m 63.5341,106.045 h 29.9097 v 29.91 H 63.5341 Z"
   fill="#00ffff"
   fill-rule="nonzero"
   opacity="1"
   stroke="none"
   id="path15" />
<path
   d="m 106.585,106.045 h 29.91 v 29.91 h -29.91 z"
   fill="#00ffff"
   fill-rule="nonzero"
   opacity="1"
   stroke="none"
   id="path16" />
<path
   d="m 19.5727,147.801 h 29.9097 v 29.91 H 19.5727 Z"
   fill="#1b8eff"
   fill-rule="nonzero"
   opacity="1"
   stroke="none"
   id="path17" />
<path
   d="m 63.5341,147.801 h 29.9097 v 29.91 H 63.5341 Z"
   fill="#00ffff"
   fill-rule="nonzero"
   opacity="1"
   stroke="none"
   id="path18" />
<path
   d="m 19.5727,189.557 h 29.9097 v 29.91 H 19.5727 Z"
   fill="#1b8eff"
   fill-rule="nonzero"
   opacity="1"
   stroke="none"
   id="path19" />
</g>
<g
   class="icon"
   id="icon-test"
   >
<path
   d="M 100.192,26.2368 63.514,63.1173 43.9143,43.6252 l -8.5608,8.608 19.5997,19.4921 7.2186,7.1791 1.3863,1.3787 45.2389,-45.4886 z"
   fill="#00ffff"
   fill-rule="nonzero"
   opacity="1"
   stroke="none"
   id="path20" />
<path
   d="m 97.7906,92.8659 -36.6782,36.8801 -19.5996,-19.492 -8.5608,8.608 19.5996,19.492 7.2186,7.18 1.3864,1.378 45.2394,-45.488 z"
   fill="#00ffff"
   fill-rule="nonzero"
   opacity="1"
   stroke="none"
   id="path21" />
<path
   d="m 122.442,55.9154 c 0,-5.923 4.801,-10.7245 10.724,-10.7245 5.923,0 10.724,4.8015 10.724,10.7245 0,5.9229 -4.801,10.7244 -10.724,10.7244 -5.923,0 -10.724,-4.8015 -10.724,-10.7244 z"
   fill="#1b8eff"
   fill-rule="nonzero"
   opacity="1"
   stroke="none"
   id="path22" />
<path
   d="m 122.442,55.9154 c 0,-5.923 4.801,-10.7245 10.724,-10.7245 5.923,0 10.724,4.8015 10.724,10.7245 0,5.9229 -4.801,10.7244 -10.724,10.7244 -5.923,0 -10.724,-4.8015 -10.724,-10.7244 z"
   fill="#1b8eff"
   fill-rule="nonzero"
   opacity="1"
   stroke="none"
   id="path23" />
<path
   d="m 154.124,55.9154 c 0,-5.923 4.802,-10.7245 10.724,-10.7245 5.923,0 10.725,4.8015 10.725,10.7245 0,5.9229 -4.802,10.7244 -10.725,10.7244 -5.922,0 -10.724,-4.8015 -10.724,-10.7244 z"
   fill="#1b8eff"
   fill-rule="nonzero"
   opacity="1"
   stroke="none"
   id="path24" />
<path
   d="m 185.806,55.9154 c 0,-5.923 4.802,-10.7245 10.725,-10.7245 5.923,0 10.724,4.8015 10.724,10.7245 0,5.9229 -4.801,10.7244 -10.724,10.7244 -5.923,0 -10.725,-4.8015 -10.725,-10.7244 z"
   fill="#1b8eff"
   fill-rule="nonzero"
   opacity="1"
   stroke="none"
   id="path25" />
<path
   d="m 122.442,124.141 c 0,-5.923 4.801,-10.725 10.724,-10.725 5.923,0 10.724,4.802 10.724,10.725 0,5.923 -4.801,10.724 -10.724,10.724 -5.923,0 -10.724,-4.801 -10.724,-10.724 z"
   fill="#1b8eff"
   fill-rule="nonzero"
   opacity="1"
   stroke="none"
   id="path26" />
<path
   d="m 154.124,124.141 c 0,-5.923 4.802,-10.725 10.724,-10.725 5.923,0 10.725,4.802 10.725,10.725 0,5.923 -4.802,10.724 -10.725,10.724 -5.922,0 -10.724,-4.801 -10.724,-10.724 z"
   fill="#1b8eff"
   fill-rule="nonzero"
   opacity="1"
   stroke="none"
   id="path27" />
<path
   d="m 185.806,124.141 c 0,-5.923 4.802,-10.725 10.725,-10.725 5.923,0 10.724,4.802 10.724,10.725 0,5.923 -4.801,10.724 -10.724,10.724 -5.923,0 -10.725,-4.801 -10.725,-10.724 z"
   fill="#1b8eff"
   fill-rule="nonzero"
   opacity="1"
   stroke="none"
   id="path28" />
<path
   d="m 97.7906,158.866 -36.6782,36.88 -19.5996,-19.492 -8.5608,8.608 19.5996,19.492 7.2186,7.18 1.3864,1.378 45.2394,-45.488 z"
   fill="#00ffff"
   fill-rule="nonzero"
   opacity="1"
   stroke="none"
   id="path29" />
<path
   d="m 122.442,190.141 c 0,-5.923 4.801,-10.725 10.724,-10.725 5.923,0 10.724,4.802 10.724,10.725 0,5.923 -4.801,10.724 -10.724,10.724 -5.923,0 -10.724,-4.801 -10.724,-10.724 z"
   fill="#1b8eff"
   fill-rule="nonzero"
   opacity="1"
   stroke="none"
   id="path30" />
<path
   d="m 154.124,190.141 c 0,-5.923 4.802,-10.725 10.724,-10.725 5.923,0 10.725,4.802 10.725,10.725 0,5.923 -4.802,10.724 -10.725,10.724 -5.922,0 -10.724,-4.801 -10.724,-10.724 z"
   fill="#1b8eff"
   fill-rule="nonzero"
   opacity="1"
   stroke="none"
   id="path31" />
<path
   d="m 185.806,190.141 c 0,-5.923 4.802,-10.725 10.725,-10.725 5.923,0 10.724,4.802 10.724,10.725 0,5.923 -4.801,10.724 -10.724,10.724 -5.923,0 -10.725,-4.801 -10.725,-10.724 z"
   fill="#1b8eff"
   fill-rule="nonzero"
   opacity="1"
   stroke="none"
   id="path32" />
</g>
<g
   class="icon"
   id="icon-state"
   >
<path
   d="m 29.7302,67.4421 c 0,-19.3328 21.9189,-35.0052 48.9572,-35.0052 27.0386,0 48.9566,15.6724 48.9566,35.0052 0,19.3329 -21.918,35.0049 -48.9566,35.0049 -27.0383,0 -48.9572,-15.672 -48.9572,-35.0049 z"
   fill="#ff8c00"
   fill-rule="nonzero"
   opacity="1"
   stroke="none"
   id="path33" />
<path
   d="m 127.644,146.348 h 77.251 v 64.413 h -77.251 z"
   fill="#1b8eff"
   fill-rule="nonzero"
   opacity="1"
   stroke="none"
   id="path34" />
<path
   d="M 126.019,178.523 C 97.276,179.179 51.6072,169.588 44.7567,142.797 37.9062,116.005 57.8175,99.9487 57.8175,99.9487"
   fill="none"
   opacity="1"
   stroke="#00ffff"
   stroke-linecap="butt"
   stroke-linejoin="miter"
   stroke-width="8.5208"
   id="path35" />
<path
   d="M 29.7302,113.904 57.3593,96.3512 61.9206,121.362"
   fill="none"
   opacity="1"
   stroke="#00ffff"
   stroke-linecap="butt"
   stroke-linejoin="miter"
   stroke-width="8.5208"
   id="path36" />
<path
   d="m 127.644,67.4421 c 25.43,1.3338 64.913,14.9147 68.637,44.2809 2.184,17.216 -3.433,29.802 -8.454,37.27 -3.543,5.269 -6.79,7.99 -6.79,7.99"
   fill="none"
   opacity="1"
   stroke="#00ffff"
   stroke-linecap="butt"
   stroke-linejoin="miter"
   stroke-width="9.21459"
   id="path37" />
<path
   d="m 209.563,140.234 -25.912,16.959 -1.858,-27.284"
   fill="none"
   opacity="1"
   stroke="#00ffff"
   stroke-linecap="butt"
   stroke-linejoin="miter"
   stroke-width="9.21459"
   id="path38" />
</g>
<g
   class="icon"
   id="icon-lit"
   >
<path
   d="M 52.3317,21.9902 23.483,50.839 52.335,79.691 54.1175,75.2235 34.4299,51.1232 53.4829,26.3168 Z"
   fill="#ff8c00"
   fill-rule="nonzero"
   opacity="1"
   stroke="none"
   id="path39" />
<path
   d="m 122.717,79.691 28.848,-28.8488 -28.852,-28.852 -1.782,4.4675 19.688,24.1003 -19.053,24.8063 z"
   fill="#ff8c00"
   fill-rule="nonzero"
   opacity="1"
   stroke="none"
   id="path40" />
<path
   d="m 52.3317,170.94 -28.8487,28.849 28.852,28.852 1.7825,-4.467 -19.6876,-24.101 19.053,-24.806 z"
   fill="#ff8c00"
   fill-rule="nonzero"
   opacity="1"
   stroke="none"
   id="path41" />
<path
   d="m 122.988,228.641 28.849,-28.849 -28.852,-28.852 -1.783,4.468 19.688,24.1 -19.053,24.807 z"
   fill="#ff8c00"
   fill-rule="nonzero"
   opacity="1"
   stroke="none"
   id="path42" />
<path
   d="m 104.779,177.326 6.109,-0.183 -21.8693,45.295 -6.6901,-0.136 z"
   fill="#ff8c00"
   fill-rule="nonzero"
   opacity="1"
   stroke="none"
   id="path43" />
<path
   d="m 99.4859,91.566 c -7.3792,0 -13.3565,5.9773 -13.3565,13.356 0,0.112 0.0114,0.22 0.0141,0.331 -0.071,6.896 -3.5584,12.968 -8.8645,16.597 5.3611,3.666 8.8786,9.823 8.8786,16.808 0,0.373 -0.0365,0.736 -0.0563,1.104 h 0.0281 c 10e-5,7.379 5.9773,13.363 13.3565,13.363 1.5151,0 1.4371,0.306 2.7951,-0.158 -5.2566,-1.798 -10.5994,-7.41 -10.5994,-13.276 l 0.0019,-0.252 c -0.592,-0.663 -0.0947,-0.408 -0.0947,-0.781 0,-6.985 -0.3092,-13.142 -5.6702,-16.808 5.3061,-3.629 6.0175,-9.933 6.0885,-16.83 -0.0027,-0.11 0.0927,0.089 0.0927,-0.022 0,-5.8665 5.3999,-11.4855 10.6562,-13.281 -1.358,-0.4644 -1.755,-0.151 -3.2701,-0.151 z"
   fill="#1b8eff"
   fill-rule="nonzero"
   opacity="1"
   stroke="none"
   id="path44" />
<path
   d="m 194.31,91.566 c 7.379,0 13.357,5.9773 13.357,13.356 0,0.112 -0.012,0.22 -0.014,0.331 0.071,6.896 3.558,12.968 8.864,16.597 -5.361,3.666 -8.879,9.823 -8.879,16.808 0,0.373 0.037,0.736 0.057,1.104 h -0.028 c 0,7.379 -5.978,13.363 -13.357,13.363 -1.515,0 -1.437,0.306 -2.795,-0.158 5.257,-1.798 10.599,-7.41 10.599,-13.276 l -0.001,-0.252 c 0.592,-0.663 0.094,-0.408 0.094,-0.781 0,-6.985 0.309,-13.142 5.67,-16.808 -5.306,-3.629 -6.017,-9.933 -6.088,-16.83 0.003,-0.11 -0.093,0.089 -0.093,-0.022 0,-5.8665 -5.4,-11.4855 -10.656,-13.281 1.358,-0.4644 1.755,-0.151 3.27,-0.151 z"
   fill="#1b8eff"
   fill-rule="nonzero"
   opacity="1"
   stroke="none"
   id="path45" />
<path
   d="m 113.282,122.343 c 0,-4.374 3.546,-7.92 7.92,-7.92 4.375,0 7.921,3.546 7.921,7.92 0,4.375 -3.546,7.921 -7.921,7.921 -4.374,0 -7.92,-3.546 -7.92,-7.921 z"
   fill="#00ffff"
   fill-rule="nonzero"
   opacity="1"
   stroke="none"
   id="path46" />
<path
   d="m 139.838,122.343 c 0,-4.374 3.546,-7.92 7.921,-7.92 4.374,0 7.921,3.546 7.921,7.92 0,4.375 -3.547,7.921 -7.921,7.921 -4.375,0 -7.921,-3.546 -7.921,-7.921 z"
   fill="#00ffff"
   fill-rule="nonzero"
   opacity="1"
   stroke="none"
   id="path47" />
<path
   d="m 165.542,122.624 c 0,-4.375 3.546,-7.921 7.921,-7.921 4.374,0 7.92,3.546 7.92,7.921 0,4.374 -3.546,7.921 -7.92,7.921 -4.375,0 -7.921,-3.547 -7.921,-7.921 z"
   fill="#00ffff"
   fill-rule="nonzero"
   opacity="1"
   stroke="none"
   id="path48" />
</g>
<g
   class="icon"
   id="icon-gui"
   >
<path
   d="M 22.2413,27.4456 H 218.337 V 213.169 H 22.2413 Z"
   fill="none"
   opacity="1"
   stroke="#1b8eff"
   stroke-linecap="round"
   stroke-linejoin="round"
   stroke-width="8.5208"
   id="path49" />
<path
   d="m 110.866,102.05 h 85.337 v 90.53 h -85.337 z"
   fill="none"
   opacity="1"
   stroke="#1b8eff"
   stroke-linecap="round"
   stroke-linejoin="round"
   stroke-width="8.5208"
   id="path50" />
<path
   d="m 43.0754,102.05 h 44.033 v 90.53 h -44.033 z"
   fill="none"
   opacity="1"
   stroke="#00ffff"
   stroke-linecap="round"
   stroke-linejoin="round"
   stroke-width="8.5208"
   id="path51" />
<path
   d="M 43.0754,47.3525 H 196.203 V 83.872 H 43.0754 Z"
   fill="none"
   opacity="1"
   stroke="#ff8c00"
   stroke-linecap="round"
   stroke-linejoin="round"
   stroke-width="8.5208"
   id="path52" />
</g>
<g
   class="icon"
   id="icon-code"
   >
<path
   d="m 19.062,33.579 c 0,-6.6441 5.386,-12.0301 12.03,-12.0301 h 99.783 c 6.644,0 12.03,5.386 12.03,12.0301 v 0 c 0,6.644 -5.386,12.03 -12.03,12.03 H 31.092 c -6.644,0 -12.03,-5.386 -12.03,-12.03 z"
   fill="#ff8c00"
   fill-rule="nonzero"
   opacity="1"
   stroke="none"
   id="path53" />
<path
   d="m 142.905,152.569 c 0,-6.644 5.386,-12.03 12.03,-12.03 h 29.782 c 6.644,0 12.03,5.386 12.03,12.03 v 0 c 0,6.644 -5.386,12.03 -12.03,12.03 h -29.782 c -6.644,0 -12.03,-5.386 -12.03,-12.03 z"
   fill="#ff8c00"
   fill-rule="nonzero"
   opacity="1"
   stroke="none"
   id="path54" />
<path
   d="m 49.062,73.579 c 0,-6.6441 5.386,-12.0301 12.03,-12.0301 h 99.783 c 6.644,0 12.03,5.386 12.03,12.0301 v 0 c 0,6.644 -5.386,12.03 -12.03,12.03 H 61.092 c -6.644,0 -12.03,-5.386 -12.03,-12.03 z"
   fill="#1b8eff"
   fill-rule="nonzero"
   opacity="1"
   stroke="none"
   id="path55" />
<path
   d="m 119.062,113.579 c 0,-6.644 5.386,-12.03 12.03,-12.03 h 59.783 c 6.644,0 12.03,5.386 12.03,12.03 v 0 c 0,6.644 -5.386,12.03 -12.03,12.03 h -59.783 c -6.644,0 -12.03,-5.386 -12.03,-12.03 z"
   fill="#1b8eff"
   fill-rule="nonzero"
   opacity="1"
   stroke="none"
   id="path56" />
<path
   d="m 49.062,152.569 c 0,-6.644 5.386,-12.03 12.03,-12.03 h 59.783 c 6.644,0 12.03,5.386 12.03,12.03 v 0 c 0,6.644 -5.386,12.03 -12.03,12.03 H 61.092 c -6.644,0 -12.03,-5.386 -12.03,-12.03 z"
   fill="#1b8eff"
   fill-rule="nonzero"
   opacity="1"
   stroke="none"
   id="path57" />
<path
   d="m 19.062,192.569 c 0,-6.644 5.386,-12.03 12.03,-12.03 h 119.783 c 6.644,0 12.03,5.386 12.03,12.03 v 0 c 0,6.644 -5.386,12.03 -12.03,12.03 H 31.092 c -6.644,0 -12.03,-5.386 -12.03,-12.03 z"
   fill="#1b8eff"
   fill-rule="nonzero"
   opacity="1"
   stroke="none"
   id="path58" />
<path
   d="m 49.062,113.579 c 0,-6.644 5.386,-12.03 12.03,-12.03 h 39.783 c 6.644,0 12.03,5.386 12.03,12.03 v 0 c 0,6.644 -5.386,12.03 -12.03,12.03 H 61.092 c -6.644,0 -12.03,-5.386 -12.03,-12.03 z"
   fill="#00ffff"
   fill-rule="nonzero"
   opacity="1"
   stroke="none"
   id="path59" />
<path
   d="m 149.062,33.579 c 0,-6.6441 5.386,-12.0301 12.03,-12.0301 h 49.783 c 6.644,0 12.03,5.386 12.03,12.0301 v 0 c 0,6.644 -5.386,12.03 -12.03,12.03 h -49.783 c -6.644,0 -12.03,-5.386 -12.03,-12.03 z"
   fill="#00ffff"
   fill-rule="nonzero"
   opacity="1"
   stroke="none"
   id="path60" />
</g>
<g
   class="icon"
   id="icon-ha-astro-integration"
   >

<path
   d="m 110.558,213.969 c -5.19,-4.745 -6.706,-14.714 -4.543,-21.937 3.75,4.554 8.945,5.996 14.327,6.811 8.308,1.256 16.468,0.786 24.185,-3.011 0.883,-0.435 1.699,-1.013 2.664,-1.598 0.724,2.101 0.913,4.222 0.66,6.38 -0.615,5.258 -3.232,9.319 -7.393,12.398 -1.664,1.231 -3.425,2.332 -5.144,3.493 -5.28,3.569 -6.708,7.753 -4.724,13.84 0.047,0.149 0.089,0.297 0.196,0.659 -2.696,-1.207 -4.665,-2.964 -6.166,-5.274 -1.585,-2.437 -2.338,-5.133 -2.378,-8.051 -0.02,-1.42 -0.02,-2.853 -0.211,-4.253 -0.466,-3.412 -2.068,-4.94 -5.087,-5.028 -3.097,-0.091 -5.547,1.824 -6.197,4.84 -0.05,0.231 -0.122,0.46 -0.194,0.729 z"
   fill="#ffffff"
   fill-rule="nonzero"
   opacity="1"
   stroke="none"
   id="path61" />
<path
   d="m 110.558,213.969 c -5.19,-4.745 -6.706,-14.714 -4.543,-21.937 3.75,4.554 8.945,5.996 14.327,6.811 8.308,1.256 16.468,0.786 24.185,-3.011 0.883,-0.435 1.699,-1.013 2.664,-1.598 0.724,2.101 0.913,4.222 0.66,6.38 -0.615,5.258 -3.232,9.319 -7.393,12.398 -1.664,1.231 -3.425,2.332 -5.144,3.493 -5.28,3.569 -6.708,7.753 -4.724,13.84 0.047,0.149 0.089,0.297 0.196,0.659 -2.696,-1.207 -4.665,-2.964 -6.166,-5.274 -1.585,-2.437 -2.338,-5.133 -2.378,-8.051 -0.02,-1.42 -0.02,-2.853 -0.211,-4.253 -0.466,-3.412 -2.068,-4.94 -5.087,-5.028 -3.097,-0.091 -5.547,1.824 -6.197,4.84 -0.05,0.231 -0.122,0.46 -0.194,0.729 z"
   fill="url(#LinearGradient)"
   fill-rule="nonzero"
   opacity="1"
   stroke="none"
   id="path62" />
<path
   d="m 80.9324,190.829 c 0,0 15.3706,-7.488 30.7836,-7.488 l 11.622,-35.966 c 0.435,-1.739 1.705,-2.921 3.139,-2.921 1.434,0 2.705,1.182 3.14,2.921 l 11.621,35.966 c 18.255,0 30.784,7.488 30.784,7.488 0,0 -26.108,-71.124 -26.159,-71.267 -0.749,-2.103 -2.014,-3.457 -3.72,-3.457 h -31.329 c -1.705,0 -2.919,1.354 -3.72,3.457 -0.056,0.14 -26.1616,71.267 -26.1616,71.267 z"
   fill="#ffffff"
   fill-rule="nonzero"
   opacity="1"
   stroke="none"
   id="path63" />

<path
   d="M 130.097,98.4815 H 90.5048 V 138.168 H 75.0651 V 98.4815 H 35.3863 V 83.0417 H 75.0651 V 43.3629 h 15.4397 v 39.6788 h 32.0602 z m 12.784,-55.1186 h -18.21 l 46.237,94.8051 h 18.208 z"
   fill="#0067ff"
   fill-rule="nonzero"
   opacity="1"
   stroke="none"
   id="path64" />
</g>

<g
   class="icon"
   id="icon-ha-vite-plugin"
><path
     d="m 208.91741,109.90767 -58.84825,105.23091 c -1.21503,2.17261 -4.33659,2.18541 -5.56985,0.0233 L 84.484206,109.91782 c -1.343555,-2.35611 0.671166,-5.20999 3.341082,-4.73277 l 58.911242,10.53005 c 0.3758,0.0671 0.76055,0.0665 1.13636,-0.002 l 57.67927,-10.513 c 2.661,-0.48499 4.6852,2.34679 3.36525,4.70753 z"
     fill="url(#paint0_linear)"
     id="path1"
     style="fill:url(#paint0_linear);stroke-width:0.319831" /><path
     d="m 174.79913,91.373412 -43.54947,8.533339 c -0.71578,0.140259 -1.24574,0.746849 -1.28892,1.474809 l -2.67889,45.24444 c -0.063,1.06567 0.91568,1.89276 1.95576,1.65288 l 12.12479,-2.79819 c 1.13444,-0.26163 2.1595,0.73752 1.92634,1.87836 l -3.60224,17.63964 c -0.24244,1.18721 0.87218,2.20235 2.03155,1.85022 l 7.48885,-2.27528 c 1.16098,-0.35245 2.27656,0.66556 2.03093,1.85374 l -5.72466,27.70791 c -0.35821,1.73317 1.94713,2.67827 2.90854,1.19233 l 0.64222,-0.99244 35.48653,-70.81952 c 0.59424,-1.18577 -0.4305,-2.53787 -1.73285,-2.28653 l -12.48044,2.4087 c -1.17283,0.22612 -2.17069,-0.86609 -1.83966,-2.01356 l 8.14576,-28.238319 c 0.33135,-1.14939 -0.67003,-2.242561 -1.84414,-2.012529 z"
     fill="url(#paint1_linear)"
     id="path2-0"
     style="fill:url(#paint1_linear);stroke-width:0.319831" /><path
     d="M 120.94445,93.396755 H 81.352258 v 39.686495 h -15.4397 V 93.396755 h -39.6788 v -15.4398 h 39.6788 v -39.6788 h 15.4397 v 39.6788 h 32.060192 z m 12.784,-55.1186 h -18.21 l 46.237,94.805095 h 18.208 z"
     fill="#0067ff"
     fill-rule="nonzero"
     opacity="1"
     stroke="none"
     id="path68" /></g></svg>
