<?xml version="1.0" encoding="UTF-8" standalone="no"?>
<!DOCTYPE svg PUBLIC "-//W3C//DTD SVG 1.1//EN" "http://www.w3.org/Graphics/SVG/1.1/DTD/svg11.dtd">
<!-- Created with Vectornator (http://vectornator.io/) -->
<svg height="100%" stroke-miterlimit="10" style="fill-rule:nonzero;clip-rule:evenodd;stroke-linecap:round;stroke-linejoin:round;" version="1.1" viewBox="0 0 240 240" width="100%" xml:space="preserve" xmlns="http://www.w3.org/2000/svg" xmlns:vectornator="http://vectornator.io" xmlns:xlink="http://www.w3.org/1999/xlink">
<defs>
<linearGradient gradientTransform="matrix(50.1204 -23.6812 23.6812 50.1204 105.061 231.004)" gradientUnits="userSpaceOnUse" id="LinearGradient" x1="0" x2="1" y1="0" y2="0">
<stop offset="0" stop-color="#d83333"/>
<stop offset="1" stop-color="#f041ff"/>
</linearGradient>
    <style>
.icon { display: none }
.icon:target { display: inline;}
</style>

</defs>
<g class="icon" id="icon-transition" vectornator:layerName="icon-transition" >
<path d="M93.6966 134.486C93.6966 124.305 102.119 116.051 112.509 116.051L213.547 116.051C223.937 116.051 232.36 124.305 232.36 134.486L232.36 187.86C232.36 198.04 223.937 206.294 213.547 206.294L112.509 206.294C102.119 206.294 93.6966 198.04 93.6966 187.86L93.6966 134.486Z" fill="#1b8eff" fill-rule="nonzero" opacity="1" stroke="none" vectornator:layerName="path"/>
<path d="M54.2831 94.8793C54.2831 84.6984 62.7059 76.4451 73.0959 76.4451L174.134 76.4451C184.524 76.4451 192.947 84.6984 192.947 94.8793L192.947 148.253C192.947 158.434 184.524 166.687 174.134 166.687L73.0959 166.687C62.7059 166.687 54.2831 158.434 54.2831 148.253L54.2831 94.8793Z" fill="#1b8eff" fill-opacity="0.753066" fill-rule="nonzero" opacity="1" stroke="none" vectornator:layerName="path"/>
<path d="M13.3052 56.6781C13.3052 46.4972 21.7279 38.2439 32.118 38.2439L133.156 38.2439C143.546 38.2439 151.969 46.4972 151.969 56.6781L151.969 110.052C151.969 120.233 143.546 128.486 133.156 128.486L32.118 128.486C21.7279 128.486 13.3052 120.233 13.3052 110.052L13.3052 56.6781Z" fill="#1b8eff" fill-opacity="0.446075" fill-rule="nonzero" opacity="1" stroke="none" vectornator:layerName="path"/>
</g>
<g class="icon"  id="icon-multiplication" vectornator:layerName="icon-multiplication" >
<path d="M19.5727 22.5329L49.4824 22.5329L49.4824 52.4426L19.5727 52.4426L19.5727 22.5329Z" fill="#ff8c00" fill-rule="nonzero" opacity="1" stroke="none" vectornator:layerName="path"/>
<path d="M63.5341 22.5329L93.4438 22.5329L93.4438 52.4426L63.5341 52.4426L63.5341 22.5329Z" fill="#ff8c00" fill-rule="nonzero" opacity="1" stroke="none" vectornator:layerName="path"/>
<path d="M106.585 22.5329L136.495 22.5329L136.495 52.4426L106.585 52.4426L106.585 22.5329Z" fill="#ff8c00" fill-rule="nonzero" opacity="1" stroke="none" vectornator:layerName="path"/>
<path d="M149.289 22.5329L179.199 22.5329L179.199 52.4426L149.289 52.4426L149.289 22.5329Z" fill="#ff8c00" fill-rule="nonzero" opacity="1" stroke="none" vectornator:layerName="path"/>
<path d="M192.518 22.5329L222.427 22.5329L222.427 52.4426L192.518 52.4426L192.518 22.5329Z" fill="#ff8c00" fill-rule="nonzero" opacity="1" stroke="none" vectornator:layerName="path"/>
<path d="M19.5727 64.289L49.4824 64.289L49.4824 94.1987L19.5727 94.1987L19.5727 64.289Z" fill="#1b8eff" fill-rule="nonzero" opacity="1" stroke="none" vectornator:layerName="path"/>
<path d="M63.5341 64.289L93.4438 64.289L93.4438 94.1987L63.5341 94.1987L63.5341 64.289Z" fill="#00ffff" fill-rule="nonzero" opacity="1" stroke="none" vectornator:layerName="path"/>
<path d="M106.585 64.289L136.495 64.289L136.495 94.1987L106.585 94.1987L106.585 64.289Z" fill="#00ffff" fill-rule="nonzero" opacity="1" stroke="none" vectornator:layerName="path"/>
<path d="M149.289 64.289L179.199 64.289L179.199 94.1987L149.289 94.1987L149.289 64.289Z" fill="#00ffff" fill-rule="nonzero" opacity="1" stroke="none" vectornator:layerName="path"/>
<path d="M19.5727 106.045L49.4824 106.045L49.4824 135.955L19.5727 135.955L19.5727 106.045Z" fill="#1b8eff" fill-rule="nonzero" opacity="1" stroke="none" vectornator:layerName="path"/>
<path d="M63.5341 106.045L93.4438 106.045L93.4438 135.955L63.5341 135.955L63.5341 106.045Z" fill="#00ffff" fill-rule="nonzero" opacity="1" stroke="none" vectornator:layerName="path"/>
<path d="M106.585 106.045L136.495 106.045L136.495 135.955L106.585 135.955L106.585 106.045Z" fill="#00ffff" fill-rule="nonzero" opacity="1" stroke="none" vectornator:layerName="path"/>
<path d="M19.5727 147.801L49.4824 147.801L49.4824 177.711L19.5727 177.711L19.5727 147.801Z" fill="#1b8eff" fill-rule="nonzero" opacity="1" stroke="none" vectornator:layerName="path"/>
<path d="M63.5341 147.801L93.4438 147.801L93.4438 177.711L63.5341 177.711L63.5341 147.801Z" fill="#00ffff" fill-rule="nonzero" opacity="1" stroke="none" vectornator:layerName="path"/>
<path d="M19.5727 189.557L49.4824 189.557L49.4824 219.467L19.5727 219.467L19.5727 189.557Z" fill="#1b8eff" fill-rule="nonzero" opacity="1" stroke="none" vectornator:layerName="path"/>
</g>
<g class="icon"  id="icon-test" vectornator:layerName="icon-test" >
<path d="M100.192 26.2368L63.514 63.1173L43.9143 43.6252L35.3535 52.2332L54.9532 71.7253L62.1718 78.9044L63.5581 80.2831L108.797 34.7945L100.192 26.2368Z" fill="#00ffff" fill-rule="nonzero" opacity="1" stroke="none" vectornator:layerName="path"/>
<path d="M97.7906 92.8659L61.1124 129.746L41.5128 110.254L32.952 118.862L52.5516 138.354L59.7702 145.534L61.1566 146.912L106.396 101.424L97.7906 92.8659Z" fill="#00ffff" fill-rule="nonzero" opacity="1" stroke="none" vectornator:layerName="path"/>
<path d="M122.442 55.9154C122.442 49.9924 127.243 45.1909 133.166 45.1909C139.089 45.1909 143.89 49.9924 143.89 55.9154C143.89 61.8383 139.089 66.6398 133.166 66.6398C127.243 66.6398 122.442 61.8383 122.442 55.9154Z" fill="#1b8eff" fill-rule="nonzero" opacity="1" stroke="none" vectornator:layerName="path"/>
<path d="M122.442 55.9154C122.442 49.9924 127.243 45.1909 133.166 45.1909C139.089 45.1909 143.89 49.9924 143.89 55.9154C143.89 61.8383 139.089 66.6398 133.166 66.6398C127.243 66.6398 122.442 61.8383 122.442 55.9154Z" fill="#1b8eff" fill-rule="nonzero" opacity="1" stroke="none" vectornator:layerName="path"/>
<path d="M154.124 55.9154C154.124 49.9924 158.926 45.1909 164.848 45.1909C170.771 45.1909 175.573 49.9924 175.573 55.9154C175.573 61.8383 170.771 66.6398 164.848 66.6398C158.926 66.6398 154.124 61.8383 154.124 55.9154Z" fill="#1b8eff" fill-rule="nonzero" opacity="1" stroke="none" vectornator:layerName="path"/>
<path d="M185.806 55.9154C185.806 49.9924 190.608 45.1909 196.531 45.1909C202.454 45.1909 207.255 49.9924 207.255 55.9154C207.255 61.8383 202.454 66.6398 196.531 66.6398C190.608 66.6398 185.806 61.8383 185.806 55.9154Z" fill="#1b8eff" fill-rule="nonzero" opacity="1" stroke="none" vectornator:layerName="path"/>
<path d="M122.442 124.141C122.442 118.218 127.243 113.416 133.166 113.416C139.089 113.416 143.89 118.218 143.89 124.141C143.89 130.064 139.089 134.865 133.166 134.865C127.243 134.865 122.442 130.064 122.442 124.141Z" fill="#1b8eff" fill-rule="nonzero" opacity="1" stroke="none" vectornator:layerName="path"/>
<path d="M154.124 124.141C154.124 118.218 158.926 113.416 164.848 113.416C170.771 113.416 175.573 118.218 175.573 124.141C175.573 130.064 170.771 134.865 164.848 134.865C158.926 134.865 154.124 130.064 154.124 124.141Z" fill="#1b8eff" fill-rule="nonzero" opacity="1" stroke="none" vectornator:layerName="path"/>
<path d="M185.806 124.141C185.806 118.218 190.608 113.416 196.531 113.416C202.454 113.416 207.255 118.218 207.255 124.141C207.255 130.064 202.454 134.865 196.531 134.865C190.608 134.865 185.806 130.064 185.806 124.141Z" fill="#1b8eff" fill-rule="nonzero" opacity="1" stroke="none" vectornator:layerName="path"/>
<path d="M97.7906 158.866L61.1124 195.746L41.5128 176.254L32.952 184.862L52.5516 204.354L59.7702 211.534L61.1566 212.912L106.396 167.424L97.7906 158.866Z" fill="#00ffff" fill-rule="nonzero" opacity="1" stroke="none" vectornator:layerName="path"/>
<path d="M122.442 190.141C122.442 184.218 127.243 179.416 133.166 179.416C139.089 179.416 143.89 184.218 143.89 190.141C143.89 196.064 139.089 200.865 133.166 200.865C127.243 200.865 122.442 196.064 122.442 190.141Z" fill="#1b8eff" fill-rule="nonzero" opacity="1" stroke="none" vectornator:layerName="path"/>
<path d="M154.124 190.141C154.124 184.218 158.926 179.416 164.848 179.416C170.771 179.416 175.573 184.218 175.573 190.141C175.573 196.064 170.771 200.865 164.848 200.865C158.926 200.865 154.124 196.064 154.124 190.141Z" fill="#1b8eff" fill-rule="nonzero" opacity="1" stroke="none" vectornator:layerName="path"/>
<path d="M185.806 190.141C185.806 184.218 190.608 179.416 196.531 179.416C202.454 179.416 207.255 184.218 207.255 190.141C207.255 196.064 202.454 200.865 196.531 200.865C190.608 200.865 185.806 196.064 185.806 190.141Z" fill="#1b8eff" fill-rule="nonzero" opacity="1" stroke="none" vectornator:layerName="path"/>
</g>
<g  class="icon" id="icon-state" vectornator:layerName="icon-state" >
<path d="M29.7302 67.4421C29.7302 48.1093 51.6491 32.4369 78.6874 32.4369C105.726 32.4369 127.644 48.1093 127.644 67.4421C127.644 86.775 105.726 102.447 78.6874 102.447C51.6491 102.447 29.7302 86.775 29.7302 67.4421Z" fill="#ff8c00" fill-rule="nonzero" opacity="1" stroke="none" vectornator:layerName="path"/>
<path d="M127.644 146.348L204.895 146.348L204.895 210.761L127.644 210.761L127.644 146.348Z" fill="#1b8eff" fill-rule="nonzero" opacity="1" stroke="none" vectornator:layerName="path"/>
<path d="M126.019 178.523C97.276 179.179 51.6072 169.588 44.7567 142.797C37.9062 116.005 57.8175 99.9487 57.8175 99.9487" fill="none" opacity="1" stroke="#00ffff" stroke-linecap="butt" stroke-linejoin="miter" stroke-width="8.5208" vectornator:layerName="path"/>
<path d="M29.7302 113.904L57.3593 96.3512L61.9206 121.362" fill="none" opacity="1" stroke="#00ffff" stroke-linecap="butt" stroke-linejoin="miter" stroke-width="8.5208" vectornator:layerName="path"/>
<path d="M127.644 67.4421C153.074 68.7759 192.557 82.3568 196.281 111.723C198.465 128.939 192.848 141.525 187.827 148.993C184.284 154.262 181.037 156.983 181.037 156.983" fill="none" opacity="1" stroke="#00ffff" stroke-linecap="butt" stroke-linejoin="miter" stroke-width="9.21459" vectornator:layerName="path"/>
<path d="M209.563 140.234L183.651 157.193L181.793 129.909" fill="none" opacity="1" stroke="#00ffff" stroke-linecap="butt" stroke-linejoin="miter" stroke-width="9.21459" vectornator:layerName="path"/>
</g>
<g class="icon"  id="icon-lit" vectornator:layerName="icon-lit" >
<path d="M52.3317 21.9902L23.483 50.839L52.335 79.691L54.1175 75.2235L34.4299 51.1232L53.4829 26.3168L52.3317 21.9902Z" fill="#ff8c00" fill-rule="nonzero" opacity="1" stroke="none" vectornator:layerName="path"/>
<path d="M122.717 79.691L151.565 50.8422L122.713 21.9902L120.931 26.4577L140.619 50.558L121.566 75.3643L122.717 79.691Z" fill="#ff8c00" fill-rule="nonzero" opacity="1" stroke="none" vectornator:layerName="path"/>
<path d="M52.3317 170.94L23.483 199.789L52.335 228.641L54.1175 224.174L34.4299 200.073L53.4829 175.267L52.3317 170.94Z" fill="#ff8c00" fill-rule="nonzero" opacity="1" stroke="none" vectornator:layerName="path"/>
<path d="M122.988 228.641L151.837 199.792L122.985 170.94L121.202 175.408L140.89 199.508L121.837 224.315L122.988 228.641Z" fill="#ff8c00" fill-rule="nonzero" opacity="1" stroke="none" vectornator:layerName="path"/>
<path d="M104.779 177.326L110.888 177.143L89.0187 222.438L82.3286 222.302L104.779 177.326Z" fill="#ff8c00" fill-rule="nonzero" opacity="1" stroke="none" vectornator:layerName="path"/>
<path d="M99.4859 91.566C92.1067 91.566 86.1294 97.5433 86.1294 104.922C86.1294 105.034 86.1408 105.142 86.1435 105.253C86.0725 112.149 82.5851 118.221 77.279 121.85C82.6401 125.516 86.1576 131.673 86.1576 138.658C86.1576 139.031 86.1211 139.394 86.1013 139.762L86.1294 139.762C86.1295 147.141 92.1067 153.125 99.4859 153.125C101.001 153.125 100.923 153.431 102.281 152.967C97.0244 151.169 91.6816 145.557 91.6816 139.691L91.6835 139.439C91.0915 138.776 91.5888 139.031 91.5888 138.658C91.5888 131.673 91.2796 125.516 85.9186 121.85C91.2247 118.221 91.9361 111.917 92.0071 105.02C92.0044 104.91 92.0998 105.109 92.0998 104.998C92.0998 99.1315 97.4997 93.5125 102.756 91.717C101.398 91.2526 101.001 91.566 99.4859 91.566Z" fill="#1b8eff" fill-rule="nonzero" opacity="1" stroke="none" vectornator:layerName="path"/>
<path d="M194.31 91.566C201.689 91.566 207.667 97.5433 207.667 104.922C207.667 105.034 207.655 105.142 207.653 105.253C207.724 112.149 211.211 118.221 216.517 121.85C211.156 125.516 207.638 131.673 207.638 138.658C207.638 139.031 207.675 139.394 207.695 139.762L207.667 139.762C207.667 147.141 201.689 153.125 194.31 153.125C192.795 153.125 192.873 153.431 191.515 152.967C196.772 151.169 202.114 145.557 202.114 139.691L202.113 139.439C202.705 138.776 202.207 139.031 202.207 138.658C202.207 131.673 202.516 125.516 207.877 121.85C202.571 118.221 201.86 111.917 201.789 105.02C201.792 104.91 201.696 105.109 201.696 104.998C201.696 99.1315 196.296 93.5125 191.04 91.717C192.398 91.2526 192.795 91.566 194.31 91.566Z" fill="#1b8eff" fill-rule="nonzero" opacity="1" stroke="none" vectornator:layerName="path"/>
<path d="M113.282 122.343C113.282 117.969 116.828 114.423 121.202 114.423C125.577 114.423 129.123 117.969 129.123 122.343C129.123 126.718 125.577 130.264 121.202 130.264C116.828 130.264 113.282 126.718 113.282 122.343Z" fill="#00ffff" fill-rule="nonzero" opacity="1" stroke="none" vectornator:layerName="path"/>
<path d="M139.838 122.343C139.838 117.969 143.384 114.423 147.759 114.423C152.133 114.423 155.68 117.969 155.68 122.343C155.68 126.718 152.133 130.264 147.759 130.264C143.384 130.264 139.838 126.718 139.838 122.343Z" fill="#00ffff" fill-rule="nonzero" opacity="1" stroke="none" vectornator:layerName="path"/>
<path d="M165.542 122.624C165.542 118.249 169.088 114.703 173.463 114.703C177.837 114.703 181.383 118.249 181.383 122.624C181.383 126.998 177.837 130.545 173.463 130.545C169.088 130.545 165.542 126.998 165.542 122.624Z" fill="#00ffff" fill-rule="nonzero" opacity="1" stroke="none" vectornator:layerName="path"/>
</g>
<g  class="icon" id="icon-gui" vectornator:layerName="icon-gui" >
<path d="M22.2413 27.4456L218.337 27.4456L218.337 213.169L22.2413 213.169L22.2413 27.4456Z" fill="none" opacity="1" stroke="#1b8eff" stroke-linecap="round" stroke-linejoin="round" stroke-width="8.5208" vectornator:layerName="path"/>
<path d="M110.866 102.05L196.203 102.05L196.203 192.58L110.866 192.58L110.866 102.05Z" fill="none" opacity="1" stroke="#1b8eff" stroke-linecap="round" stroke-linejoin="round" stroke-width="8.5208" vectornator:layerName="path"/>
<path d="M43.0754 102.05L87.1084 102.05L87.1084 192.58L43.0754 192.58L43.0754 102.05Z" fill="none" opacity="1" stroke="#00ffff" stroke-linecap="round" stroke-linejoin="round" stroke-width="8.5208" vectornator:layerName="path"/>
<path d="M43.0754 47.3525L196.203 47.3525L196.203 83.872L43.0754 83.872L43.0754 47.3525Z" fill="none" opacity="1" stroke="#ff8c00" stroke-linecap="round" stroke-linejoin="round" stroke-width="8.5208" vectornator:layerName="path"/>
</g>
<g  class="icon" id="icon-code" vectornator:layerName="icon-code" >
<path d="M19.062 33.579C19.062 26.9349 24.448 21.5489 31.092 21.5489L130.875 21.5489C137.519 21.5489 142.905 26.9349 142.905 33.579L142.905 33.579C142.905 40.223 137.519 45.609 130.875 45.609L31.092 45.609C24.448 45.609 19.062 40.223 19.062 33.579L19.062 33.579Z" fill="#ff8c00" fill-rule="nonzero" opacity="1" stroke="none" vectornator:layerName="path"/>
<path d="M142.905 152.569C142.905 145.925 148.291 140.539 154.935 140.539L184.717 140.539C191.361 140.539 196.747 145.925 196.747 152.569L196.747 152.569C196.747 159.213 191.361 164.599 184.717 164.599L154.935 164.599C148.291 164.599 142.905 159.213 142.905 152.569L142.905 152.569Z" fill="#ff8c00" fill-rule="nonzero" opacity="1" stroke="none" vectornator:layerName="path"/>
<path d="M49.062 73.579C49.062 66.9349 54.448 61.5489 61.092 61.5489L160.875 61.5489C167.519 61.5489 172.905 66.9349 172.905 73.579L172.905 73.579C172.905 80.223 167.519 85.609 160.875 85.609L61.092 85.609C54.448 85.609 49.062 80.223 49.062 73.579L49.062 73.579Z" fill="#1b8eff" fill-rule="nonzero" opacity="1" stroke="none" vectornator:layerName="path"/>
<path d="M119.062 113.579C119.062 106.935 124.448 101.549 131.092 101.549L190.875 101.549C197.519 101.549 202.905 106.935 202.905 113.579L202.905 113.579C202.905 120.223 197.519 125.609 190.875 125.609L131.092 125.609C124.448 125.609 119.062 120.223 119.062 113.579L119.062 113.579Z" fill="#1b8eff" fill-rule="nonzero" opacity="1" stroke="none" vectornator:layerName="path"/>
<path d="M49.062 152.569C49.062 145.925 54.448 140.539 61.092 140.539L120.875 140.539C127.519 140.539 132.905 145.925 132.905 152.569L132.905 152.569C132.905 159.213 127.519 164.599 120.875 164.599L61.092 164.599C54.448 164.599 49.062 159.213 49.062 152.569L49.062 152.569Z" fill="#1b8eff" fill-rule="nonzero" opacity="1" stroke="none" vectornator:layerName="path"/>
<path d="M19.062 192.569C19.062 185.925 24.448 180.539 31.092 180.539L150.875 180.539C157.519 180.539 162.905 185.925 162.905 192.569L162.905 192.569C162.905 199.213 157.519 204.599 150.875 204.599L31.092 204.599C24.448 204.599 19.062 199.213 19.062 192.569L19.062 192.569Z" fill="#1b8eff" fill-rule="nonzero" opacity="1" stroke="none" vectornator:layerName="path"/>
<path d="M49.062 113.579C49.062 106.935 54.448 101.549 61.092 101.549L100.875 101.549C107.519 101.549 112.905 106.935 112.905 113.579L112.905 113.579C112.905 120.223 107.519 125.609 100.875 125.609L61.092 125.609C54.448 125.609 49.062 120.223 49.062 113.579L49.062 113.579Z" fill="#00ffff" fill-rule="nonzero" opacity="1" stroke="none" vectornator:layerName="path"/>
<path d="M149.062 33.579C149.062 26.9349 154.448 21.5489 161.092 21.5489L210.875 21.5489C217.519 21.5489 222.905 26.9349 222.905 33.579L222.905 33.579C222.905 40.223 217.519 45.609 210.875 45.609L161.092 45.609C154.448 45.609 149.062 40.223 149.062 33.579L149.062 33.579Z" fill="#00ffff" fill-rule="nonzero" opacity="1" stroke="none" vectornator:layerName="path"/>
</g>
<g  class="icon" id="icon-ha-astro-integration" vectornator:layerName="ha-astro-integration" >
<g opacity="1" vectornator:layerName="Group 1">
<path d="M110.558 213.969C105.368 209.224 103.852 199.255 106.015 192.032C109.765 196.586 114.96 198.028 120.342 198.843C128.65 200.099 136.81 199.629 144.527 195.832C145.41 195.397 146.226 194.819 147.191 194.234C147.915 196.335 148.104 198.456 147.851 200.614C147.236 205.872 144.619 209.933 140.458 213.012C138.794 214.243 137.033 215.344 135.314 216.505C130.034 220.074 128.606 224.258 130.59 230.345C130.637 230.494 130.679 230.642 130.786 231.004C128.09 229.797 126.121 228.04 124.62 225.73C123.035 223.293 122.282 220.597 122.242 217.679C122.222 216.259 122.222 214.826 122.031 213.426C121.565 210.014 119.963 208.486 116.944 208.398C113.847 208.307 111.397 210.222 110.747 213.238C110.697 213.469 110.625 213.698 110.553 213.967L110.558 213.969Z" fill="#ffffff" fill-rule="nonzero" opacity="1" stroke="none" vectornator:layerName="path"/>
<path d="M110.558 213.969C105.368 209.224 103.852 199.255 106.015 192.032C109.765 196.586 114.96 198.028 120.342 198.843C128.65 200.099 136.81 199.629 144.527 195.832C145.41 195.397 146.226 194.819 147.191 194.234C147.915 196.335 148.104 198.456 147.851 200.614C147.236 205.872 144.619 209.933 140.458 213.012C138.794 214.243 137.033 215.344 135.314 216.505C130.034 220.074 128.606 224.258 130.59 230.345C130.637 230.494 130.679 230.642 130.786 231.004C128.09 229.797 126.121 228.04 124.62 225.73C123.035 223.293 122.282 220.597 122.242 217.679C122.222 216.259 122.222 214.826 122.031 213.426C121.565 210.014 119.963 208.486 116.944 208.398C113.847 208.307 111.397 210.222 110.747 213.238C110.697 213.469 110.625 213.698 110.553 213.967L110.558 213.969Z" fill="url(#LinearGradient)" fill-rule="nonzero" opacity="1" stroke="none" vectornator:layerName="path"/>
<path d="M80.9324 190.829C80.9324 190.829 96.303 183.341 111.716 183.341L123.338 147.375C123.773 145.636 125.043 144.454 126.477 144.454C127.911 144.454 129.182 145.636 129.617 147.375L141.238 183.341C159.493 183.341 172.022 190.829 172.022 190.829C172.022 190.829 145.914 119.705 145.863 119.562C145.114 117.459 143.849 116.105 142.143 116.105L110.814 116.105C109.109 116.105 107.895 117.459 107.094 119.562C107.038 119.702 80.9324 190.829 80.9324 190.829Z" fill="#ffffff" fill-rule="nonzero" opacity="1" stroke="none" vectornator:layerName="path"/>
</g>
<path d="M130.097 98.4815L90.5048 98.4815L90.5048 138.168L75.0651 138.168L75.0651 98.4815L35.3863 98.4815L35.3863 83.0417L75.0651 83.0417L75.0651 43.3629L90.5048 43.3629L90.5048 83.0417L122.565 83.0417L130.097 98.4815ZM142.881 43.3629L124.671 43.3629L170.908 138.168L189.116 138.168L142.881 43.3629Z" fill="#0067ff" fill-rule="nonzero" opacity="1" stroke="none" vectornator:layerName="path"/>
</g>
</svg>
