<?xml version="1.0" encoding="UTF-8" standalone="no"?>
<!DOCTYPE svg PUBLIC "-//W3C//DTD SVG 1.1//EN" "http://www.w3.org/Graphics/SVG/1.1/DTD/svg11.dtd">
<!-- Created with Vectornator (http://vectornator.io/) -->
<svg height="100%" stroke-miterlimit="10" style="fill-rule:nonzero;clip-rule:evenodd;stroke-linecap:round;stroke-linejoin:round;" version="1.1" viewBox="-0.0036 -0.0305244 145 44.9992" width="100%" xml:space="preserve" xmlns="http://www.w3.org/2000/svg" xmlns:vectornator="http://vectornator.io" xmlns:xlink="http://www.w3.org/1999/xlink">
<defs/>
<g id="Layer" vectornator:layerName="Layer">
<path d="M140.16 36.3C139.287 39.0724 138.562 41.2332 138.271 42.0302C137.645 43.7673 136.454 44.0129 134.9 44.0129C132.112 44.0129 129.99 43.3026 128.956 42.4334C128.754 42.2517 128.494 41.864 128.665 41.3006C128.985 40.275 129.595 38.4344 130.28 36.3M111.612 36.3C109.07 39.1314 107.123 41.5005 106.28 42.4948C105.379 43.565 104.058 43.7865 102.503 43.7865C100.6 43.7865 98.5515 42.7115 98.3628 42.608C97.7524 42.2769 97.7376 41.9074 97.9127 41.1381L98.4196 38.9496C98.5651 38.3176 98.8118 37.4075 99.1312 36.3024L111.611 36.3024L111.612 36.3ZM91.8675 36.3C86.6965 44.073 80.1445 44.0129 72.8655 44.0129C68.9005 44.0129 60.0815 44.0589 59.9645 36.3L91.8675 36.3ZM18.5195 36.3C19.7835 37.0921 21.2943 37.5965 22.9948 37.5965C24.9409 37.5965 26.5539 37.0054 27.7884 36.3L45.6434 36.3C44.9023 39.8127 34.5874 44.9687 25.8714 44.9687C16.7479 44.9687 8.2354 41.4559 3.6154 36.2952L18.5204 36.2952L18.5195 36.3ZM59.1095 23.086C59.1095 24.155 57.9477 27.0948 57.7727 27.5293C56.7121 30.2873 53.9533 30.7339 51.9913 30.7339C49.071 30.7339 48.0684 29.6228 48.0684 27.8664C48.0684 26.5097 49.1438 24.1623 49.2893 23.8168C50.6113 20.6242 52.9644 20.2739 55.289 20.2739C57.2646 20.2739 59.1096 21.1431 59.1096 23.086M34.0936 16.3374C34.0936 14.3042 34.0061 11.3873 32.5101 11.3873C27.613 11.3873 19.0281 19.3097 18.1711 20.2198C17.5311 20.8939 17.9972 20.8397 18.8543 20.8397L29.8523 20.8397C33.7445 20.8387 34.0935 20.1415 34.0935 16.3374L34.0936 16.3374ZM81.9476 17.0706C80.9291 17.0706 79.4047 17.2391 78.7068 18.2491C76.1219 22.0435 74.4077 31.5321 74.4077 34.1671C74.4077 35.968 75.599 35.8549 77.1688 35.8549C78.0975 35.8549 79.5787 35.8799 80.4085 34.9568C82.6899 32.4456 84.6508 21.0848 84.6508 19.0348C84.6508 17.5746 84.5474 17.0702 81.9476 17.0702L81.9476 17.0706ZM99.1326 36.3006C100.832 30.4211 104.697 18.8686 107.5 12.1206C107.646 11.7799 107.775 11.497 108.503 11.379C108.837 11.325 109.943 11.0528 111.481 11.0528C112.613 11.0528 114.808 11.1388 115.897 11.7618C115.897 11.7618 115.913 11.7438 115.913 13.6951C115.913 14.5414 115.999 17.4089 118.542 17.4089C122.857 17.4089 130.657 9.59128 137.558 9.59128C143.631 9.59128 144.996 13.5543 144.996 16.6216C144.996 20.2162 142.178 29.8936 140.158 36.3036L130.281 36.3036C131.806 31.5028 133.71 25.2226 133.71 23.4356C133.71 22.0151 133.317 20.9545 131.981 20.9545C126.36 20.9545 117.439 29.823 111.613 36.3085L99.1324 36.2985L99.1326 36.3006ZM59.9666 36.3006L59.9666 36.1369C59.9666 32.5928 62.8869 26.0979 65.2695 19.9369C66.3005 17.3197 70.6304 8.51988 85.4045 8.51988C91.5065 8.51988 99.0625 9.53108 99.0625 16.5614C99.0625 20.894 95.0237 30.4034 93.7164 33.0434C93.1208 34.2569 92.5092 35.3391 91.8715 36.2998L59.9665 36.2998L59.9666 36.3006ZM27.7876 36.3006C29.2119 35.4904 30.127 34.5394 30.4316 34.1891C30.4316 34.1891 35.2264 33.6088 38.291 33.6088C41.284 33.6088 45.6707 34.112 45.6707 35.9154C45.6707 36.0393 45.6559 36.1694 45.6423 36.2958L27.7873 36.2958L27.7876 36.3006ZM3.6146 36.3006C1.3332 33.7557-0.0036 30.8172-0.0036 27.7005C-0.0036 11.8825 28.8194-0.0305244 37.2314-0.0305244C44.7998-0.0305244 45.8308 12.7385 45.8308 17.4065C45.8308 27.3778 40.0494 29.4425 33.6128 29.4425L29.109 29.4425C24.5905 29.4425 15.511 29.162 15.511 29.162C14.7846 29.146 14.2322 28.9935 14.2322 29.4425C14.2322 31.6503 15.8305 34.6226 18.5188 36.3007L3.6146 36.3006Z" fill="#ffffff" fill-rule="nonzero" opacity="1" stroke="none" vectornator:layerName="path"/>
</g>
</svg>
