<?xml version="1.0" encoding="UTF-8" standalone="no"?>
<!DOCTYPE svg PUBLIC "-//W3C//DTD SVG 1.1//EN" "http://www.w3.org/Graphics/SVG/1.1/DTD/svg11.dtd">
<!-- Created with Vectornator (http://vectornator.io/) -->
<svg height="100%" stroke-miterlimit="10" style="fill-rule:nonzero;clip-rule:evenodd;stroke-linecap:round;stroke-linejoin:round;" version="1.1" viewBox="8.5 65.125 175.75 62.5" width="100%" xml:space="preserve" xmlns="http://www.w3.org/2000/svg" xmlns:vectornator="http://vectornator.io" xmlns:xlink="http://www.w3.org/1999/xlink">
<defs/>
<clipPath id="ArtboardFrame">
<rect height="62.5" width="175.75" x="8.5" y="65.125"/>
</clipPath>
<g clip-path="url(#ArtboardFrame)" id="Layer" vectornator:layerName="Layer">
<path d="M8.5 65.125L8.5 127.625L184.25 127.625L184.25 65.125L8.5 65.125ZM96.625 67.6875C120.079 67.6875 143.801 70.3702 165.625 79.4062C172.598 82.2942 181.938 87.771 181.938 96.375C181.938 104.959 172.617 110.456 165.625 113.344C143.801 122.381 120.08 125.062 96.625 125.062C73.249 125.063 49.1747 122.557 27.4688 113.344C21.0068 110.613 10.8125 104.468 10.8125 96.375C10.8125 88.262 21.0257 82.1363 27.4688 79.4062C49.1758 70.1932 73.23 67.6875 96.625 67.6875ZM33.0625 84.0938C33.5145 84.5068 33.9375 84.957 33.9375 85.625L33.9375 106.344C33.9375 106.992 33.5145 107.463 33.0625 107.875L49.9062 107.875C49.4352 107.463 49 106.992 49 106.344L49 85.625C49 84.957 49.4352 84.5067 49.9062 84.0938L33.0625 84.0938ZM55.75 84.0938C56.202 84.5257 56.625 84.9892 56.625 85.6562L56.625 106.344C56.625 106.992 56.202 107.463 55.75 107.875L72.1875 107.875C71.7165 107.463 71.3125 106.992 71.3125 106.344L71.3125 99.1562C71.3125 99.1562 75.5312 106.344 75.5312 106.344C75.6883 106.6 75.8438 106.905 75.8438 107.219C75.8437 107.454 75.6683 107.679 75.5312 107.875L94.4375 107.875C93.7305 107.502 93.1317 107.012 92.7188 106.344L84.875 93.9375L90.5625 85.6562C90.9992 85.0018 91.6149 84.4575 92.3125 84.0938L76.0625 84.0938C76.1805 84.3487 76.3438 84.6313 76.3438 84.9062C76.3438 85.1823 76.2005 85.4403 76.0625 85.6562L71.3125 92.8125L71.3125 85.6562C71.3125 84.9883 71.7155 84.5067 72.1875 84.0938L55.75 84.0938ZM96.7188 84.0938C97.1897 84.4868 97.625 84.978 97.625 85.625L97.625 106.344C97.625 106.973 97.1898 107.482 96.7188 107.875L123.969 107.875L123.969 99.7188C123.517 99.9928 123.029 100.219 122.5 100.219L111.719 100.219L111.719 98.875L119.875 98.875C120.426 98.875 120.922 99.08 121.375 99.375L121.375 92C120.922 92.313 120.426 92.5 119.875 92.5L111.719 92.5L111.719 90.9688L122.5 90.9688C123.03 90.9687 123.518 91.1747 123.969 91.4688L123.969 84.0938L96.7188 84.0938ZM134.562 84.0938C134.741 84.4667 134.875 84.8805 134.875 85.3125C134.875 85.8235 134.74 86.3527 134.562 86.8438L127.156 106.812C126.999 107.226 126.783 107.561 126.469 107.875L140.344 107.875C140.206 107.62 140.125 107.357 140.125 107.062C140.124 106.929 140.147 106.783 140.188 106.656L141.375 103.125L147.406 103.125L148.688 106.469C148.747 106.626 148.781 106.792 148.781 106.969C148.781 107.283 148.711 107.581 148.594 107.875L165.938 107.875C165.584 107.56 165.346 107.245 165.188 106.812L157 86.8438C156.804 86.3727 156.656 85.8425 156.656 85.3125C156.656 84.8805 156.824 84.4868 157 84.0938L134.562 84.0938ZM144.219 94.5312L145.625 98.3125L142.938 98.3125L144.219 94.5312Z" fill="#ffffff" fill-rule="nonzero" opacity="1" stroke="none" vectornator:layerName="Curve 1"/>
</g>
</svg>
