<?xml version="1.0" encoding="UTF-8" standalone="no"?>
<!DOCTYPE svg PUBLIC "-//W3C//DTD SVG 1.1//EN" "http://www.w3.org/Graphics/SVG/1.1/DTD/svg11.dtd">
<!-- Created with Vectornator (http://vectornator.io/) -->
<svg height="100%" stroke-miterlimit="10" style="fill-rule:nonzero;clip-rule:evenodd;stroke-linecap:round;stroke-linejoin:round;" version="1.1" viewBox="-1.0103e-05 3.24845e-06 400.204 400.204" width="100%" xml:space="preserve" xmlns="http://www.w3.org/2000/svg" xmlns:vectornator="http://vectornator.io" xmlns:xlink="http://www.w3.org/1999/xlink">
<defs/>
<clipPath id="ArtboardFrame">
<rect height="400.204" width="400.204" x="-1.0103e-05" y="3.24845e-06"/>
</clipPath>
<g clip-path="url(#ArtboardFrame)" id="Layer" vectornator:layerName="Layer">
<g opacity="1" vectornator:layerName="g6297">
<path d="M7.06759 200.102C7.06759 93.4921 93.4921 7.06761 200.102 7.06761C306.712 7.06761 393.137 93.4921 393.137 200.102C393.137 306.712 306.712 393.137 200.102 393.137C93.4921 393.137 7.06759 306.712 7.06759 200.102Z" fill="none" opacity="1" stroke="#ffffff" stroke-linecap="butt" stroke-linejoin="miter" stroke-width="14.1352" vectornator:layerName="circle"/>
<path d="M80.0621 200.102C80.0621 133.806 133.806 80.0621 200.102 80.0621C266.399 80.0621 320.142 133.806 320.142 200.102C320.142 266.399 266.399 320.142 200.102 320.142C133.806 320.142 80.0621 266.399 80.0621 200.102Z" fill="none" opacity="1" stroke="#ffffff" stroke-linecap="butt" stroke-linejoin="miter" stroke-width="14.1348" vectornator:layerName="circle"/>
<path d="M308.001 94.9492L312.47 99.5975C311.04 101.385 310.325 102.994 310.325 104.603C310.146 106.034 310.861 107.643 312.113 109.252C313.543 110.861 314.795 111.933 316.225 112.112C317.655 112.47 318.906 112.291 319.8 111.397C320.337 111.039 320.694 110.324 320.873 109.609C321.052 108.894 320.873 108 320.516 106.928C320.158 106.034 319.443 104.425 318.191 101.743C316.761 98.5248 315.867 95.8431 316.046 93.8765C316.225 91.1948 317.297 88.8707 319.264 87.2617C320.694 86.189 322.125 85.6527 323.912 85.4739C325.7 85.2951 327.309 85.6527 329.097 86.5465C330.885 87.4404 332.494 88.8707 334.103 90.8372C336.785 94.0554 338.036 97.0946 337.857 99.9551C337.857 102.637 336.606 105.14 334.282 107.106L329.812 102.101C331.064 100.67 331.6 99.4187 331.6 98.3461C331.6 97.0946 330.885 95.8431 329.812 94.2341C328.561 92.8038 327.309 91.91 326.058 91.5524C325.164 91.1948 324.449 91.3737 323.734 91.91C323.018 92.4462 322.84 93.1614 322.84 94.0554C322.661 95.128 323.376 97.0946 324.985 100.134C326.415 103.173 327.309 105.497 327.667 107.285C328.024 109.073 327.845 110.682 327.309 112.291C326.773 113.9 325.7 115.33 324.091 116.582C322.482 117.833 320.873 118.548 318.906 118.727C316.94 118.906 314.973 118.548 313.186 117.654C311.398 116.582 309.431 114.973 307.643 112.827C305.14 109.43 303.71 106.391 303.889 103.352C303.889 100.492 305.319 97.6309 308.001 94.9492ZM265.228 77.6327L284.357 50.458L292.581 56.1791L284.536 78.1691L302.235 62.9727L310.459 68.8724L291.509 95.8682L286.503 92.4714L301.342 71.0178L280.961 88.5382L275.776 84.9627L285.43 59.7547L270.413 81.2083C270.413 81.2083 265.228 77.6327 265.228 77.6327ZM236.805 35.2618L243.241 37.0495L238.593 54.3913C237.878 57.073 237.52 58.8608 237.52 59.7547C237.341 61.1848 237.699 62.4364 238.593 63.509C239.487 64.5817 240.738 65.2969 242.526 65.8332C244.314 66.1907 245.923 66.1907 246.996 65.8332C248.068 65.2969 248.962 64.5817 249.499 63.509C249.856 62.4364 250.571 60.6485 251.108 58.1455L255.935 40.4464L262.371 42.0554L257.901 58.8608C256.829 62.7939 255.935 65.4756 255.22 66.9059C254.326 68.5149 253.432 69.5876 252.18 70.4815C250.929 71.1967 249.499 71.733 247.711 72.0905C245.923 72.2692 243.778 72.0905 241.275 71.3753C238.235 70.4815 235.911 69.5876 234.66 68.5149C233.23 67.2634 232.157 66.0119 231.621 64.7606C230.905 63.3302 230.727 61.9 230.727 60.6485C230.727 58.682 231.263 56.0002 232.336 52.4247C232.336 52.4247 236.805 35.2618 236.805 35.2618ZM189.968 64.1537L190.683 30.9005L197.298 31.0793L197.119 45.7393L210.885 31.2581L219.824 31.4369L207.131 44.1303L220.003 64.5112L211.243 64.5112L202.483 48.7787L196.94 54.142L196.762 64.1537L189.968 64.1537ZM167.089 54.0715L173.883 54.429C173.883 58.1833 172.989 61.2226 171.201 63.5467C169.413 65.6921 166.91 67.3011 163.335 68.3738C159.223 69.4465 155.29 68.9101 151.714 66.7648C148.138 64.6194 145.814 61.0439 144.384 55.8593C142.954 50.6746 143.311 46.0263 145.278 42.4507C147.244 38.6964 150.463 36.1934 154.932 35.1207C158.865 34.048 162.262 34.4057 165.48 36.0146C167.268 36.9086 168.877 38.6964 170.307 41.0204L164.229 44.2385C163.513 42.6295 162.262 41.5568 160.832 41.0204C159.402 40.3054 157.793 40.3054 156.005 40.6629C153.681 41.378 152.072 42.6295 150.999 44.7748C149.926 46.9202 149.926 49.7807 150.999 53.714C152.072 57.647 153.502 60.3287 155.468 61.7591C157.435 63.0104 159.58 63.368 161.904 62.8317C163.513 62.2954 164.944 61.4014 165.838 59.9712C166.732 58.5409 167.268 56.5743 167.089 54.0715ZM104.162 81.5659C102.374 78.7053 101.122 76.2024 100.586 73.6995C100.229 71.9116 100.229 70.1239 100.586 68.1573C100.765 66.3695 101.48 64.7606 102.374 63.3302C103.447 61.3637 105.234 59.5758 107.38 58.1455C111.492 55.2851 115.425 54.3913 119.537 55.1063C123.828 55.8214 127.403 58.5031 130.442 62.9727C133.482 67.2634 134.733 71.5542 134.197 75.666C133.482 79.9568 131.158 83.3536 127.224 86.2142C123.112 88.8959 119 89.9686 114.889 89.2534C110.777 88.3596 107.201 85.8566 104.162 81.5659ZM109.704 77.4539C111.849 80.4931 114.173 82.281 116.855 82.8173C119.358 83.5324 121.682 82.9961 123.828 81.5659C125.973 79.9568 127.224 77.9902 127.582 75.3085C127.94 72.8056 126.867 69.9451 124.721 66.7271C122.576 63.6878 120.252 61.9 117.749 61.1848C115.425 60.6485 113.101 61.1848 110.777 62.7939C108.452 64.4029 107.201 66.3695 106.843 68.8724C106.665 71.3753 107.559 74.2359 109.704 77.4539ZM88.2536 121.326L62.3304 100.408L66.6212 95.2237L78.0631 104.52L75.2026 84.6756L80.7448 77.7032L83.069 95.5813L107.026 98.0842L101.483 104.878L83.7841 102.017L84.678 109.884L92.3655 116.141C92.3655 116.141 88.2536 121.326 88.2536 121.326Z" fill="#ffffff" fill-rule="evenodd" opacity="1" stroke="none" vectornator:layerName="path"/>
<path d="M284.843 352.152L266.47 322.754L272.35 319.08L296.602 331.206L284.292 311.547L289.804 308.056L308.178 337.637L302.298 341.311L278.413 329.553L290.355 348.661C290.355 348.661 284.843 352.152 284.843 352.152ZM249.207 366.055L237.314 333.333L261.58 324.55L263.593 330.065L245.945 336.469L248.69 343.639L265.051 337.784L267.064 343.3L250.519 349.154L253.813 358.162L272.012 351.575L274.025 356.906C274.025 356.906 249.207 366.055 249.207 366.055ZM208.154 337.086L220.831 335.616C223.771 335.249 225.976 335.249 227.446 335.433C229.65 335.8 231.488 336.535 233.141 338.005C234.611 339.291 236.081 341.128 237 343.149C238.102 345.17 238.837 347.927 239.204 351.234C239.572 353.99 239.388 356.562 239.021 358.583C238.469 361.155 237.551 363.36 236.081 365.197C234.979 366.483 233.509 367.586 231.488 368.504C230.018 369.239 227.997 369.607 225.424 369.974L212.379 371.628C212.379 371.628 208.154 337.086 208.154 337.086ZM215.87 342.047L218.626 365.014L223.771 364.279C225.792 364.095 227.078 363.727 227.997 363.544C229.099 362.993 230.018 362.441 230.569 361.706C231.304 360.971 231.671 359.685 232.039 358.215C232.223 356.562 232.223 354.357 231.855 351.785C231.671 349.029 231.12 347.008 230.569 345.722C229.834 344.252 229.099 343.333 228.18 342.598C227.078 341.863 225.976 341.496 224.69 341.312C223.587 341.312 221.75 341.312 218.994 341.68C218.994 341.68 215.87 342.047 215.87 342.047ZM176.754 372.46L177.867 337.741L203.54 338.603L203.424 344.507L184.585 343.876L184.423 351.626L201.782 352.182L201.653 357.903L184.124 357.543L183.9 366.956L203.289 367.546L203.16 373.267C203.16 373.267 176.754 372.46 176.754 372.46ZM127.85 357.062L131.892 321.602L138.69 323.99L135.383 348.243L149.53 328.032L157.43 330.972L154.858 355.776L168.087 334.83L174.701 337.219L154.858 366.984L147.876 364.411L150.265 337.586L135.015 359.634C135.015 359.634 127.85 357.062 127.85 357.062ZM93.8161 324.061L99.8793 327.368C98.9606 329.389 98.7769 331.226 99.1444 332.88C99.5118 334.534 100.614 335.82 102.452 337.106C104.289 338.392 105.942 338.943 107.412 338.759C109.066 338.576 110.168 338.025 110.72 336.922C111.271 336.187 111.454 335.452 111.454 334.717C111.271 333.982 110.903 333.064 110.168 332.145C109.617 331.41 108.331 329.94 106.31 327.735C103.738 324.796 102.268 322.407 101.717 320.386C100.982 317.63 101.349 315.058 103.003 312.853C103.921 311.383 105.208 310.281 107.045 309.546C108.698 308.811 110.536 308.627 112.557 308.995C114.578 309.546 116.599 310.465 118.804 311.935C122.478 314.323 124.683 316.895 125.418 319.835C126.153 322.591 125.786 325.347 123.948 328.103L118.069 324.428C118.804 322.775 118.987 321.305 118.62 320.202C118.253 318.916 117.15 317.814 115.497 316.712C113.843 315.609 112.373 315.058 110.903 315.058C109.985 315.058 109.25 315.425 108.698 316.16C108.331 316.895 108.147 317.63 108.515 318.549C108.698 319.651 110.168 321.489 112.557 324.061C114.945 326.633 116.415 328.654 117.334 330.308C118.253 331.961 118.62 333.615 118.62 335.452C118.436 337.106 117.885 338.943 116.599 340.781C115.497 342.434 114.027 343.72 112.189 344.455C110.168 345.374 108.147 345.558 106.126 345.19C103.921 344.639 101.533 343.537 99.1444 341.883C95.4697 339.494 93.2649 336.738 92.3463 333.799C91.6113 330.675 92.1625 327.552 93.8161 324.061Z" fill="#ffffff" fill-rule="evenodd" opacity="1" stroke="none" vectornator:layerName="path"/>
<path d="M178.557 155.775C170.726 167.673 187.287 161.569 188.663 156.265C183.748 154.61 180.473 154.214 178.557 155.775ZM165.852 186.251C157.054 178.405 134.339 190.553 135.114 190.691C128.614 183.535 124.539 157.819 164.802 152.931L171.437 165.784C189.005 166.606 189.797 160.565 191.273 156.032C193.528 154.854 196.521 155.918 199.619 154.23C188.883 153.106 179.236 151.577 177.247 152.953C174.729 154.695 172.432 163.881 172.26 163.5L165.266 147.45L235.45 147.45C235.87 151.44 229.018 156.638 227.479 159.765C252.288 150.928 272.065 129.007 267.773 131.493C273.408 147.707 261.366 152.833 260.465 159.392C256.528 158.212 288.35 170.391 293.671 163.388C293.382 167.153 285.354 184.12 265.667 173.083C256.962 168.203 279.534 181.697 275.032 189.913C275.841 197.775 295.068 194.561 295.188 194.09C295.814 191.62 297.062 210.123 278.909 212.31C272.947 213.029 287.245 237.177 293.586 239.4C294.109 242.699 281.062 248.376 275.2 243.895C270.802 240.534 279.413 268.489 277.397 269.513C275.968 270.238 274.049 275.38 263.613 269.496C262.151 268.672 256.27 281.052 260.263 285.651C252.773 286.314 251.081 280.916 246.707 278.726C243.635 277.188 245.364 297.498 245.187 295.059C241.045 295.335 230.736 286.561 232.28 282.147C230.825 285.3 225.408 296.426 221.764 296.104C216.678 295.654 219.8 280.393 219.23 281.843C218.039 284.87 216.161 303.026 211.716 301.452C197.203 296.314 210.017 280.388 210.161 279.911C210.777 277.871 198.773 285.189 192.862 296.439C191.517 298.998 189.526 288.096 188.545 288.868C176.063 298.689 148.311 287.645 156.587 284.374C180.358 274.977 169.647 261.796 151.232 279.86C149.836 281.23 156.655 260.302 153.411 259.672C148.82 258.779 141.616 273.068 140.211 269.458C131.981 248.308 178.314 239.47 178.016 239.693C168.688 246.703 174.222 221.441 179.892 229.504C227.797 242.669 203.876 205.304 168.641 218.896C161.684 220.825 146.388 210.808 149.489 210.275C161.496 210.299 174.577 204.51 187.154 205.93C208.881 208.382 229.129 217.247 216.691 214.682C216.466 220.82 212.155 190.767 156.767 205.97C118.062 216.594 103.948 204.774 104.758 193.884C104.994 190.706 113.178 199.082 132.41 200.851C198.91 189.544 209.061 201.121 214.95 204.225C198.983 175.968 178.334 196.423 165.852 186.251ZM161.686 140.761C153.334 127.488 142.212 109.265 141.685 107.99C141.159 106.718 141.405 106.485 143.267 106.485C146.537 106.485 151.392 107.825 153.718 109.37C155.463 110.528 155.769 111.411 155.769 115.296L155.769 119.861C159.754 117.34 168.018 115.022 171.115 122.584C172.971 126.166 169.481 130.152 163.275 131.536C160.554 132.142 161.345 132.916 166.74 134.922C171.853 136.823 179.489 137.153 184.281 135.679C191.557 133.442 196.008 128.555 190.769 128.555C187.056 128.555 182.47 126.635 181.321 124.598C179.12 120.699 182.697 111.022 189.519 110.176C193.436 109.69 193.6 109.487 192.22 106.823C190.968 104.407 193.228 101.017 197.113 99.4815C199.813 98.4147 200.324 98.4008 202.764 99.3268C207.753 101.22 208.942 102.745 208.28 106.407L207.686 109.691L211.027 110.151C222.851 111.779 223.151 127.213 211.415 128.368C209.359 128.57 207.438 129.019 207.147 129.364C206.403 130.247 210.195 133.055 214.839 135.06C218.28 136.545 219.524 136.715 224.865 136.434C230.55 136.134 238.72 133.943 238.703 132.722C238.7 132.453 237.061 131.549 235.062 130.711C230.171 128.661 228.326 126.488 229.055 123.634C231.863 115.061 236.747 116.837 245.09 119.811L245.09 115.543C245.09 109.923 245.535 109.259 250.31 107.757C255.268 106.198 258.762 106.097 258.762 107.513C258.762 108.499 253.25 117.819 241.869 136.079L236.555 144.607C212.405 144.607 188.255 144.607 164.105 144.607L161.686 140.761L161.686 140.761Z" fill="#ffffff" fill-rule="nonzero" opacity="1" stroke="none" vectornator:layerName="path"/>
</g>
</g>
</svg>
