<?xml version="1.0" encoding="UTF-8" standalone="no"?>
<!DOCTYPE svg PUBLIC "-//W3C//DTD SVG 1.1//EN" "http://www.w3.org/Graphics/SVG/1.1/DTD/svg11.dtd">
<!-- Created with Vectornator (http://vectornator.io/) -->
<svg height="100%" stroke-miterlimit="10" style="fill-rule:nonzero;clip-rule:evenodd;stroke-linecap:round;stroke-linejoin:round;" version="1.1" viewBox="0 0 2000 874.48" width="100%" xml:space="preserve" xmlns="http://www.w3.org/2000/svg" xmlns:xlink="http://www.w3.org/1999/xlink">
<defs/>
<g id="Untitled">
<path d="M1538.41 556.99L1657.07 445.92L1579.28 445.9L1438.49 579.46L1488.46 322.69L1389.75 322.64L1307.08 748.66L1405.94 748.68L1437.91 582.31L1503.95 748.69L1623.31 748.68L1538.41 556.99Z" fill="#ffffff" fill-rule="nonzero" opacity="1" stroke="none"/>
<path d="M1654.41 600.8C1645.9 644.51 1654.6 686.03 1678.26 714.74C1699.27 740.23 1729.93 753.7 1766.93 753.7C1812.95 753.7 1842.68 725.17 1842.97 724.83L1853.99 712.31C1853.99 712.31 1849.9 740.13 1844.6 766.36C1840.6 786.29 1828.74 793.87 1818.43 799.89C1809.33 805.19 1788.32 805.55 1769.34 805.48L1639.68 805.46L1629.59 859.31L1766.89 859.49C1791.58 859.49 1849.44 859.49 1881.34 842.94C1926.56 819.46 1939.05 757.65 1941.05 748.82C1941.51 746.83 1992.32 486.1 2000 445.81C1970.49 445.83 1833.93 445.86 1833.93 445.86C1735.83 445.93 1669.37 523.86 1654.41 600.8ZM1891.87 491.36L1855.88 680.67C1855.88 680.67 1839.84 697.09 1815.77 697.09C1799.24 697.09 1787.3 691.5 1776.93 678.91C1754.25 651.4 1761.82 601.24 1764.67 586.54C1767.77 570.64 1786.82 491.3 1858.71 491.51C1878.92 491.56 1891.87 491.36 1891.87 491.36Z" fill="#ffffff" fill-rule="nonzero" opacity="1" stroke="none"/>
<path d="M1136.71 440.23C1021.51 440.29 956.51 510.36 937.71 588.74C912.58 693.57 966.46 753.08 1076.44 753.01C1191.63 752.96 1259.51 678.46 1275.44 604.52C1294.45 516.1 1264.85 440.18 1136.71 440.23ZM1169.32 607.53C1169.08 608.53 1144.45 708.35 1087.64 709.03C1045.05 709.53 1027.13 653.96 1046.04 584.87C1046.31 583.87 1070.92 483.66 1127.74 483.37C1177.74 483.1 1179.91 563.15 1169.32 607.53Z" fill="#ffffff" fill-rule="nonzero" opacity="1" stroke="none"/>
<path d="M337.2 859.32L0 859.32L0 805.47L347.28 805.47L337.2 859.32Z" fill="#ffffff" fill-rule="nonzero" opacity="1" stroke="none"/>
<path d="M750.74 635.11L773.8 635.11L773.8 635.11L773.8 737.63L773.8 737.63L750.74 737.63L750.74 737.63L750.74 635.11L750.74 635.11Z" fill="#ffffff" fill-rule="nonzero" opacity="1" stroke="none"/>
<path d="M292.37 608.81L315.45 608.81L315.45 608.81L315.45 737.63L315.45 737.63L292.37 737.63L292.37 737.63L292.37 608.81L292.37 608.81Z" fill="#ffffff" fill-rule="nonzero" opacity="1" stroke="none"/>
<path d="M175.87 608.81L198.94 608.81L198.94 608.81L198.94 737.63L198.94 737.63L175.87 737.63L175.87 737.63L175.87 608.81L175.87 608.81Z" fill="#ffffff" fill-rule="nonzero" opacity="1" stroke="none"/>
<path d="M523.56 620.08L546.64 620.08L546.64 620.08L546.64 737.63L546.64 737.63L523.56 737.63L523.56 737.63L523.56 620.08L523.56 620.08Z" fill="#ffffff" fill-rule="nonzero" opacity="1" stroke="none"/>
<path d="M609.08 620.08L632.16 620.08L632.16 620.08L632.16 737.63L632.16 737.63L609.08 737.63L609.08 737.63L609.08 620.08L609.08 620.08Z" fill="#ffffff" fill-rule="nonzero" opacity="1" stroke="none"/>
<path d="M57.43 608.81L80.51 608.81L80.51 608.81L80.51 736.46L80.51 736.46L57.43 736.46L57.43 736.46L57.43 608.81L57.43 608.81Z" fill="#ffffff" fill-rule="nonzero" opacity="1" stroke="none"/>
<path d="M449.65 538.28L509.02 569.83L509.02 737.63L446.08 737.63L372.87 737.61L372.87 441.55L449.66 482.44L449.66 538.26L449.65 538.28Z" fill="#ffffff" fill-rule="nonzero" opacity="1" stroke="none"/>
<path d="M164.01 0L208.61 0L208.61 0L208.61 448.44L208.61 448.44L164.01 448.44L164.01 448.44L164.01 0L164.01 0Z" fill="#ffffff" fill-rule="nonzero" opacity="1" stroke="none"/>
<path d="M136.75 424.89L230.9 424.89L230.9 424.89L230.9 449.68L230.9 449.68L136.75 449.68L136.75 449.68L136.75 424.89L136.75 424.89Z" fill="#ffffff" fill-rule="nonzero" opacity="1" stroke="none"/>
<path d="M481.02 253.95L525.62 253.95L525.62 253.95L525.62 496.24L525.62 496.24L481.02 496.24L481.02 496.24L481.02 253.95L481.02 253.95Z" fill="#ffffff" fill-rule="nonzero" opacity="1" stroke="none"/>
<path d="M602.27 130.07L641.91 130.07L641.91 130.07L641.91 493.75L641.91 493.75L602.27 493.75L602.27 493.75L602.27 130.07L602.27 130.07Z" fill="#ffffff" fill-rule="nonzero" opacity="1" stroke="none"/>
<path d="M662.97 737.63L662.97 492.51L733.6 533.39L733.6 737.63L662.97 737.63Z" fill="#ffffff" fill-rule="nonzero" opacity="1" stroke="none"/>
<path d="M815.09 737.63L815.09 565.43L870.84 598.78L870.84 737.63L815.09 737.63Z" fill="#ffffff" fill-rule="nonzero" opacity="1" stroke="none"/>
<path d="M374.97 842.91C374.44 842.91 374.23 842.65 374.34 842.12L375.69 834.43C375.8 833.9 376.09 833.64 376.56 833.64L398.53 833.64C399.06 833.64 399.27 833.9 399.16 834.43L397.81 842.12C397.7 842.65 397.41 842.91 396.94 842.91L374.97 842.91Z" fill="#ffffff" fill-rule="nonzero" opacity="1" stroke="none"/>
<path d="M420.5 873.61C419.97 873.61 419.76 873.34 419.87 872.82L428.83 821.74C428.94 821.21 429.23 820.95 429.7 820.95L438.82 820.95C439.35 820.95 439.56 821.22 439.46 821.74L438.98 824.67L439.06 824.67C440.12 823.3 441.52 822.19 443.26 821.34C445.01 820.49 447.09 820.07 449.53 820.07C453.18 820.07 455.93 821.2 457.78 823.44C459.63 825.69 460.56 828.77 460.56 832.68C460.56 833.95 460.47 835.42 460.28 837.08C460.09 838.75 459.83 840.45 459.49 842.2C459.15 843.94 458.74 845.64 458.26 847.27C457.78 848.91 457.23 850.34 456.6 851.56C455.06 854.68 453.15 856.9 450.85 858.22C448.55 859.54 445.81 860.2 442.64 860.2C440.1 860.2 438.11 859.73 436.65 858.81C435.19 857.89 434.18 856.79 433.59 855.52L433.51 855.52L430.5 872.81C430.39 873.34 430.1 873.6 429.63 873.6L420.5 873.6L420.5 873.61ZM440.72 851.24C443.63 851.24 445.79 849.79 447.23 846.87C447.55 846.24 447.85 845.39 448.14 844.33C448.43 843.27 448.69 842.18 448.93 841.04C449.17 839.9 449.35 838.78 449.48 837.67C449.61 836.56 449.68 835.64 449.68 834.9C449.68 833.05 449.29 831.61 448.53 830.58C447.76 829.55 446.45 829.03 444.6 829.03C441.69 829.03 439.52 830.49 438.09 833.4C437.77 834.03 437.47 834.87 437.18 835.9C436.89 836.93 436.63 838.03 436.39 839.19C436.15 840.35 435.97 841.49 435.84 842.6C435.71 843.71 435.64 844.64 435.64 845.37C435.64 847.22 436.02 848.66 436.79 849.69C437.56 850.73 438.87 851.24 440.72 851.24Z" fill="#ffffff" fill-rule="nonzero" opacity="1" stroke="none"/>
<path d="M485.94 859.33C485.41 859.33 485.2 859.07 485.3 858.54L485.7 855.92L485.62 855.92C484.51 857.19 483.06 858.22 481.26 859.01C479.46 859.8 477.27 860.2 474.68 860.2C473.25 860.2 471.9 859.97 470.64 859.52C469.37 859.07 468.26 858.44 467.31 857.62C466.36 856.8 465.62 855.78 465.09 854.57C464.56 853.35 464.3 851.98 464.3 850.45C464.3 845.8 465.85 842.27 468.94 839.86C472.03 837.45 476.38 836.25 481.99 836.25L488.65 836.25C488.97 836.25 489.18 836.09 489.29 835.77L489.61 834.03C489.93 832.18 489.65 830.82 488.78 829.94C487.91 829.07 485.93 828.63 482.87 828.63C480.97 828.63 479.29 828.88 477.83 829.39C476.38 829.89 475.14 830.49 474.14 831.18C473.67 831.5 473.35 831.42 473.19 830.94L470.81 824.99C470.65 824.51 470.78 824.15 471.21 823.88C472.95 822.72 475.1 821.79 477.64 821.11C480.18 820.43 482.85 820.08 485.65 820.08C491.31 820.08 495.29 821.13 497.59 823.21C499.89 825.3 500.59 828.86 499.69 833.88L495.25 858.55C495.14 859.08 494.85 859.34 494.38 859.34L485.94 859.34L485.94 859.33ZM479.35 852.27C481.62 852.27 483.46 851.81 484.86 850.88C486.26 849.96 487.09 848.57 487.36 846.72L487.83 843.79C487.88 843.47 487.75 843.31 487.44 843.31L482.04 843.31C479.4 843.31 477.49 843.77 476.33 844.7C475.17 845.62 474.59 846.96 474.59 848.71C474.59 849.77 474.99 850.63 475.78 851.29C476.58 851.95 477.77 852.27 479.35 852.27Z" fill="#ffffff" fill-rule="nonzero" opacity="1" stroke="none"/>
<path d="M505.45 859.33C504.87 859.33 504.63 859.07 504.73 858.54L511.24 821.74C511.35 821.21 511.64 820.95 512.11 820.95L521.23 820.95C521.76 820.95 521.97 821.22 521.87 821.74L521.23 825.15L521.31 825.15C522.47 823.56 523.94 822.32 525.71 821.42C527.48 820.52 529.45 820.07 531.62 820.07C532.94 820.07 534.13 820.27 535.19 820.67C536.25 821.07 537.09 821.64 537.73 822.38C538.05 822.8 538.07 823.17 537.81 823.49L532.41 831.19C532.04 831.56 531.67 831.61 531.3 831.35C530.56 830.82 529.79 830.4 529 830.08C528.21 829.76 527.34 829.6 526.38 829.6C524.32 829.6 522.68 830.34 521.47 831.82C520.25 833.3 519.41 835.44 518.93 838.25L515.36 858.55C515.25 859.08 514.99 859.34 514.57 859.34L505.45 859.34L505.45 859.33Z" fill="#ffffff" fill-rule="nonzero" opacity="1" stroke="none"/>
<path d="M549.78 859.81C545.39 859.81 542.51 858.76 541.13 856.68C539.76 854.59 539.44 851.4 540.18 847.12L543.51 829.19C543.56 828.87 543.43 828.71 543.11 828.71L540.73 828.71C540.25 828.71 540.07 828.45 540.17 827.92L541.28 821.73C541.39 821.2 541.68 820.94 542.15 820.94L544.53 820.94C544.79 820.94 544.98 820.78 545.09 820.46L546.91 810.15C547.02 809.62 547.33 809.36 547.86 809.36L556.82 809.36C557.35 809.36 557.56 809.63 557.46 810.15L555.64 820.46C555.53 820.78 555.64 820.94 555.96 820.94L560.8 820.94C561.33 820.94 561.54 821.21 561.43 821.73L560.4 827.92C560.29 828.45 559.98 828.71 559.45 828.71L554.54 828.71C554.27 828.71 554.11 828.87 554.06 829.19L550.81 846.72C550.54 848.25 550.61 849.3 551 849.85C551.4 850.4 552.26 850.68 553.58 850.68L555.32 850.68C555.85 850.68 556.06 850.95 555.96 851.47L554.61 859.01C554.5 859.54 554.21 859.8 553.74 859.8L549.78 859.8L549.78 859.81Z" fill="#ffffff" fill-rule="nonzero" opacity="1" stroke="none"/>
<path d="M596.03 860.21C591.59 860.21 588.07 859.02 585.48 856.64C582.89 854.26 581.6 850.85 581.6 846.41C581.6 845.3 581.68 844.03 581.84 842.6C582 841.17 582.22 839.73 582.52 838.28C582.81 836.83 583.16 835.41 583.59 834.04C584.01 832.67 584.49 831.42 585.02 830.31C586.82 826.66 589.23 824.04 592.24 822.46C595.25 820.87 598.77 820.08 602.79 820.08C607.23 820.08 610.75 821.27 613.34 823.65C615.93 826.03 617.23 829.44 617.23 833.88C617.23 834.99 617.15 836.26 616.99 837.69C616.83 839.12 616.6 840.56 616.31 842.01C616.02 843.46 615.66 844.88 615.24 846.25C614.82 847.63 614.34 848.87 613.81 849.98C612.01 853.63 609.6 856.25 606.59 857.83C603.56 859.41 600.05 860.21 596.03 860.21ZM597.46 851.24C600.37 851.24 602.53 849.79 603.97 846.87C604.29 846.18 604.6 845.3 604.92 844.21C605.24 843.12 605.52 842 605.75 840.84C605.99 839.68 606.17 838.55 606.31 837.47C606.44 836.39 606.51 835.53 606.51 834.89C606.51 833.04 606.11 831.6 605.32 830.57C604.53 829.54 603.2 829.02 601.36 829.02C598.45 829.02 596.28 830.48 594.85 833.39C594.53 834.08 594.22 834.96 593.9 836.05C593.58 837.13 593.3 838.26 593.06 839.42C592.82 840.58 592.64 841.71 592.51 842.79C592.38 843.87 592.31 844.73 592.31 845.37C592.31 847.22 592.71 848.66 593.5 849.69C594.28 850.73 595.6 851.24 597.46 851.24Z" fill="#ffffff" fill-rule="nonzero" opacity="1" stroke="none"/>
<path d="M623.23 859.33C622.65 859.33 622.41 859.07 622.52 858.54L627.68 829.19C627.73 828.87 627.63 828.71 627.36 828.71L624.98 828.71C624.51 828.71 624.32 828.45 624.43 827.92L625.54 821.73C625.64 821.2 625.91 820.94 626.33 820.94L628.71 820.94C628.97 820.94 629.16 820.78 629.27 820.46L629.59 818.48C630.43 813.77 632.07 810.41 634.51 808.41C636.94 806.4 640.38 805.4 644.82 805.4L649.03 805.4C649.56 805.4 649.77 805.66 649.66 806.19L648.39 813.25C648.29 813.78 648 814.04 647.52 814.04L645.3 814.04C643.55 814.04 642.32 814.33 641.61 814.91C640.9 815.49 640.41 816.63 640.14 818.32L639.74 820.38C639.69 820.75 639.82 820.94 640.14 820.94L646.17 820.94C646.75 820.94 646.99 821.21 646.89 821.73L645.78 827.92C645.68 828.45 645.36 828.71 644.83 828.71L638.8 828.71C638.48 828.71 638.3 828.87 638.25 829.19L633.17 858.54C633.06 859.07 632.8 859.33 632.38 859.33C632.38 859.33 623.23 859.33 623.23 859.33Z" fill="#ffffff" fill-rule="nonzero" opacity="1" stroke="none"/>
<path d="M677.64 859.81C673.25 859.81 670.37 858.76 668.99 856.68C667.62 854.59 667.3 851.4 668.04 847.12L671.37 829.19C671.42 828.87 671.29 828.71 670.97 828.71L668.59 828.71C668.11 828.71 667.93 828.45 668.03 827.92L669.14 821.73C669.25 821.2 669.54 820.94 670.01 820.94L672.39 820.94C672.65 820.94 672.84 820.78 672.95 820.46L674.77 810.15C674.88 809.62 675.19 809.36 675.72 809.36L684.68 809.36C685.21 809.36 685.42 809.63 685.32 810.15L683.5 820.46C683.39 820.78 683.5 820.94 683.82 820.94L688.66 820.94C689.19 820.94 689.4 821.21 689.29 821.73L688.26 827.92C688.15 828.45 687.84 828.71 687.31 828.71L682.4 828.71C682.13 828.71 681.97 828.87 681.92 829.19L678.67 846.72C678.4 848.25 678.47 849.3 678.86 849.85C679.26 850.4 680.12 850.68 681.44 850.68L683.18 850.68C683.71 850.68 683.92 850.95 683.82 851.47L682.47 859.01C682.36 859.54 682.07 859.8 681.6 859.8L677.64 859.8L677.64 859.81Z" fill="#ffffff" fill-rule="nonzero" opacity="1" stroke="none"/>
<path d="M713.5 859.33C712.97 859.33 712.76 859.06 712.87 858.53L716.75 836.43C717.12 834.15 716.95 832.35 716.23 831.02C715.52 829.7 714.21 829.03 712.3 829.03C710.45 829.03 708.89 829.68 707.62 830.98C706.35 832.28 705.5 834.04 705.08 836.27L701.19 858.54C701.08 859.07 700.82 859.34 700.4 859.34L691.28 859.34C690.7 859.34 690.46 859.08 690.56 858.55L699.84 806.2C699.94 805.67 700.24 805.41 700.71 805.41L709.83 805.41C710.36 805.41 710.57 805.67 710.46 806.2L707.13 824.6L707.21 824.6C708.32 823.33 709.75 822.26 711.49 821.39C713.24 820.52 715.3 820.08 717.68 820.08C719.74 820.08 721.5 820.44 722.95 821.15C724.4 821.86 725.54 822.87 726.36 824.16C727.18 825.46 727.71 826.98 727.95 828.72C728.19 830.46 728.12 832.37 727.75 834.43L723.38 858.54C723.27 859.07 722.98 859.33 722.51 859.33L713.5 859.33Z" fill="#ffffff" fill-rule="nonzero" opacity="1" stroke="none"/>
<path d="M748.4 860.21C743.69 860.21 740.04 859.02 737.45 856.64C734.86 854.26 733.57 850.77 733.57 846.17C733.57 845.01 733.63 843.74 733.77 842.37C733.9 840.99 734.1 839.62 734.36 838.25C734.63 836.87 734.96 835.53 735.35 834.2C735.75 832.88 736.21 831.69 736.74 830.63C738.43 827.19 740.72 824.57 743.6 822.78C746.48 820.99 750.14 820.08 754.59 820.08C756.6 820.08 758.48 820.37 760.22 820.95C761.96 821.53 763.47 822.39 764.74 823.53C766.01 824.67 767 826.07 767.71 827.73C768.43 829.4 768.78 831.34 768.78 833.56C768.78 834.62 768.72 835.82 768.58 837.17C768.45 838.52 768.17 840.3 767.75 842.52C767.64 843.05 767.33 843.31 766.8 843.31L744.36 843.31C744.04 843.31 743.86 843.47 743.8 843.79C743.75 844.05 743.72 844.45 743.72 844.98C743.72 847.41 744.32 849.13 745.51 850.14C746.7 851.14 748.41 851.65 750.63 851.65C752.32 851.65 753.96 851.29 755.55 850.58C757.13 849.87 758.56 848.98 759.83 847.92C760.25 847.55 760.65 847.55 761.02 847.92L764.9 852.6C765.27 853.02 765.24 853.45 764.82 853.87C762.81 855.72 760.45 857.24 757.76 858.43C755.06 859.61 751.94 860.21 748.4 860.21ZM757.99 836.25C758.25 836.25 758.44 836.09 758.55 835.77C758.71 834.98 758.79 834.26 758.79 833.63C758.79 830.04 756.94 828.23 753.24 828.23C751.71 828.23 750.33 828.6 749.12 829.34C747.9 830.08 746.95 831.14 746.27 832.51C746 832.99 745.8 833.46 745.67 833.94C745.54 834.42 745.42 835 745.31 835.68C745.26 836.05 745.36 836.24 745.63 836.24L757.99 836.24L757.99 836.25Z" fill="#ffffff" fill-rule="nonzero" opacity="1" stroke="none"/>
<path d="M808.04 860.21C803.33 860.21 799.68 859.02 797.09 856.64C794.5 854.26 793.21 850.77 793.21 846.17C793.21 845.01 793.27 843.74 793.41 842.37C793.54 840.99 793.74 839.62 794 838.25C794.27 836.87 794.6 835.53 794.99 834.2C795.39 832.88 795.85 831.69 796.38 830.63C798.07 827.19 800.36 824.57 803.24 822.78C806.12 820.99 809.78 820.08 814.22 820.08C816.23 820.08 818.11 820.37 819.85 820.95C821.59 821.53 823.1 822.39 824.37 823.53C825.64 824.67 826.63 826.07 827.34 827.73C828.06 829.4 828.41 831.34 828.41 833.56C828.41 834.62 828.35 835.82 828.21 837.17C828.08 838.52 827.8 840.3 827.38 842.52C827.27 843.05 826.96 843.31 826.43 843.31L804 843.31C803.68 843.31 803.5 843.47 803.44 843.79C803.39 844.05 803.36 844.45 803.36 844.98C803.36 847.41 803.96 849.13 805.15 850.14C806.34 851.14 808.05 851.65 810.27 851.65C811.96 851.65 813.6 851.29 815.19 850.58C816.77 849.87 818.2 848.98 819.47 847.92C819.89 847.55 820.29 847.55 820.66 847.92L824.54 852.6C824.91 853.02 824.88 853.45 824.46 853.87C822.45 855.72 820.09 857.24 817.4 858.43C814.7 859.61 811.58 860.21 808.04 860.21ZM817.64 836.25C817.9 836.25 818.09 836.09 818.2 835.77C818.36 834.98 818.44 834.26 818.44 833.63C818.44 830.04 816.59 828.23 812.89 828.23C811.36 828.23 809.98 828.6 808.77 829.34C807.55 830.08 806.6 831.14 805.92 832.51C805.65 832.99 805.45 833.46 805.32 833.94C805.19 834.42 805.07 835 804.96 835.68C804.91 836.05 805.01 836.24 805.28 836.24L817.64 836.24L817.64 836.25Z" fill="#ffffff" fill-rule="nonzero" opacity="1" stroke="none"/>
<path d="M855.32 859.33C854.79 859.33 854.58 859.06 854.69 858.53L858.57 836.43C858.94 834.15 858.77 832.35 858.05 831.02C857.34 829.7 856.03 829.03 854.12 829.03C852.27 829.03 850.71 829.68 849.44 830.98C848.17 832.28 847.32 834.04 846.9 836.27L843.01 858.54C842.9 859.07 842.64 859.34 842.22 859.34L833.1 859.34C832.52 859.34 832.28 859.08 832.38 858.55L838.89 821.75C839 821.22 839.29 820.96 839.76 820.96L848.88 820.96C849.41 820.96 849.62 821.23 849.52 821.75L848.96 824.6L849.04 824.6C850.15 823.33 851.58 822.26 853.32 821.39C855.07 820.52 857.13 820.08 859.51 820.08C861.57 820.08 863.33 820.44 864.78 821.15C866.23 821.86 867.37 822.86 868.19 824.12C869.01 825.39 869.54 826.9 869.78 828.64C870.02 830.39 869.95 832.29 869.58 834.35L865.21 858.54C865.1 859.07 864.81 859.33 864.34 859.33C864.34 859.33 855.32 859.33 855.32 859.33Z" fill="#ffffff" fill-rule="nonzero" opacity="1" stroke="none"/>
<path d="M890.21 860.21C885.5 860.21 881.85 859.02 879.26 856.64C876.67 854.26 875.38 850.77 875.38 846.17C875.38 845.01 875.44 843.74 875.58 842.37C875.71 840.99 875.91 839.62 876.17 838.25C876.44 836.87 876.77 835.53 877.16 834.2C877.56 832.88 878.02 831.69 878.55 830.63C880.24 827.19 882.53 824.57 885.41 822.78C888.29 820.99 891.95 820.08 896.4 820.08C898.41 820.08 900.29 820.37 902.03 820.95C903.77 821.53 905.28 822.39 906.55 823.53C907.82 824.67 908.81 826.07 909.52 827.73C910.24 829.4 910.59 831.34 910.59 833.56C910.59 834.62 910.53 835.82 910.39 837.17C910.26 838.52 909.98 840.3 909.56 842.52C909.45 843.05 909.14 843.31 908.61 843.31L886.17 843.31C885.85 843.31 885.67 843.47 885.61 843.79C885.56 844.05 885.53 844.45 885.53 844.98C885.53 847.41 886.13 849.13 887.32 850.14C888.51 851.15 890.22 851.65 892.44 851.65C894.13 851.65 895.77 851.29 897.36 850.58C898.94 849.87 900.37 848.98 901.64 847.92C902.06 847.55 902.46 847.55 902.83 847.92L906.71 852.6C907.08 853.02 907.05 853.45 906.63 853.87C904.62 855.72 902.26 857.24 899.57 858.43C896.88 859.61 893.76 860.21 890.21 860.21ZM899.81 836.25C900.07 836.25 900.26 836.09 900.37 835.77C900.53 834.98 900.61 834.26 900.61 833.63C900.61 830.04 898.76 828.23 895.06 828.23C893.53 828.23 892.15 828.6 890.94 829.34C889.72 830.08 888.77 831.14 888.09 832.51C887.82 832.99 887.62 833.46 887.49 833.94C887.36 834.42 887.24 835 887.13 835.68C887.08 836.05 887.18 836.24 887.45 836.24L899.81 836.24L899.81 836.25Z" fill="#ffffff" fill-rule="nonzero" opacity="1" stroke="none"/>
<path d="M915.28 859.33C914.7 859.33 914.46 859.07 914.56 858.54L921.07 821.74C921.18 821.21 921.47 820.95 921.94 820.95L931.06 820.95C931.59 820.95 931.8 821.22 931.7 821.74L931.06 825.15L931.14 825.15C932.3 823.56 933.77 822.32 935.54 821.42C937.31 820.52 939.28 820.07 941.45 820.07C942.77 820.07 943.96 820.27 945.02 820.67C946.08 821.07 946.92 821.64 947.56 822.38C947.88 822.8 947.9 823.17 947.64 823.49L942.24 831.19C941.87 831.56 941.5 831.61 941.13 831.35C940.39 830.82 939.62 830.4 938.83 830.08C938.04 829.76 937.17 829.6 936.21 829.6C934.15 829.6 932.51 830.34 931.3 831.82C930.08 833.3 929.24 835.44 928.76 838.25L925.19 858.55C925.08 859.08 924.82 859.34 924.4 859.34L915.28 859.34L915.28 859.33Z" fill="#ffffff" fill-rule="nonzero" opacity="1" stroke="none"/>
<path d="M957.47 874.48C954.35 874.48 951.61 873.88 949.26 872.7C946.91 871.51 945.15 870.01 943.98 868.22C943.61 867.74 943.66 867.32 944.14 866.95L950.01 862.03C950.49 861.66 950.91 861.66 951.28 862.03C952.34 863.09 953.39 863.93 954.45 864.57C955.51 865.2 956.8 865.52 958.34 865.52C963.36 865.52 966.38 862.61 967.38 856.8L968.01 853.31L967.93 853.31C966.87 854.74 965.51 855.86 963.85 856.68C962.18 857.5 960.16 857.91 957.78 857.91C954.03 857.91 951.26 856.8 949.49 854.58C947.72 852.36 946.83 849.37 946.83 845.62C946.83 844.56 946.91 843.32 947.07 841.89C947.23 840.46 947.45 838.99 947.75 837.49C948.04 835.98 948.39 834.5 948.82 833.05C949.24 831.6 949.72 830.31 950.25 829.2C953.1 823.12 957.73 820.08 964.13 820.08C966.51 820.08 968.43 820.52 969.88 821.39C971.33 822.26 972.35 823.39 972.94 824.76L973.02 824.76L973.58 821.75C973.69 821.22 973.98 820.96 974.45 820.96L983.33 820.96C983.86 820.96 984.07 821.23 983.96 821.75L978.09 855.62C977.51 859.06 976.66 861.97 975.55 864.35C974.44 866.73 973.04 868.67 971.34 870.18C969.65 871.69 967.65 872.79 965.35 873.47C963.07 874.14 960.44 874.48 957.47 874.48ZM962.68 848.94C965.36 848.94 967.38 847.52 968.75 844.67C969.06 844.04 969.35 843.32 969.62 842.5C969.88 841.68 970.11 840.81 970.29 839.89C970.47 838.97 970.62 838.07 970.72 837.2C970.82 836.33 970.88 835.53 970.88 834.79C970.88 832.95 970.5 831.52 969.74 830.52C968.98 829.52 967.7 829.02 965.92 829.02C963.24 829.02 961.22 830.44 959.85 833.29C959.54 833.92 959.25 834.65 958.98 835.46C958.72 836.28 958.5 837.14 958.31 838.07C958.13 838.99 957.98 839.9 957.88 840.79C957.77 841.69 957.72 842.48 957.72 843.16C957.72 845 958.1 846.42 958.86 847.43C959.62 848.44 960.89 848.94 962.68 848.94Z" fill="#ffffff" fill-rule="nonzero" opacity="1" stroke="none"/>
<path d="M986.75 873.61C986.17 873.61 985.96 873.35 986.11 872.82L987.38 865.43C987.48 864.9 987.8 864.64 988.33 864.64L990 864.64C991.37 864.64 992.5 864.33 993.37 863.72C994.24 863.11 995.08 862.04 995.87 860.5L997.3 857.56L989.84 821.72C989.73 821.19 989.95 820.93 990.48 820.93L999.92 820.93C1000.4 820.93 1000.66 821.2 1000.71 821.72L1004.2 844.48L1004.36 844.48L1015.46 821.72C1015.67 821.19 1016.04 820.93 1016.57 820.93L1026.09 820.93C1026.72 820.93 1026.91 821.2 1026.64 821.72L1004.2 862.65C1003.09 864.76 1001.99 866.52 1000.91 867.92C999.83 869.32 998.7 870.45 997.54 871.29C996.38 872.13 995.13 872.73 993.81 873.08C992.49 873.42 991.01 873.6 989.37 873.6L986.75 873.6L986.75 873.61Z" fill="#ffffff" fill-rule="nonzero" opacity="1" stroke="none"/>
<path d="M1064.63 860.21C1062.09 860.21 1060.1 859.74 1058.64 858.82C1057.18 857.9 1056.17 856.8 1055.58 855.53L1055.5 855.53L1054.95 858.54C1054.84 859.07 1054.58 859.33 1054.16 859.33L1045.04 859.33C1044.46 859.33 1044.22 859.07 1044.32 858.54L1053.6 806.19C1053.7 805.66 1054 805.4 1054.47 805.4L1063.59 805.4C1064.12 805.4 1064.33 805.66 1064.22 806.19L1060.97 824.67L1061.05 824.67C1062.11 823.3 1063.51 822.19 1065.25 821.34C1067 820.49 1069.08 820.07 1071.52 820.07C1075.17 820.07 1077.92 821.2 1079.77 823.44C1081.62 825.69 1082.55 828.77 1082.55 832.68C1082.55 833.95 1082.46 835.42 1082.27 837.08C1082.08 838.75 1081.82 840.45 1081.48 842.2C1081.14 843.94 1080.73 845.64 1080.25 847.27C1079.77 848.91 1079.22 850.34 1078.59 851.56C1077.05 854.68 1075.14 856.9 1072.84 858.22C1070.54 859.54 1067.8 860.21 1064.63 860.21ZM1062.73 851.24C1065.64 851.24 1067.8 849.79 1069.24 846.87C1069.56 846.24 1069.86 845.39 1070.15 844.33C1070.44 843.27 1070.7 842.18 1070.94 841.04C1071.18 839.9 1071.36 838.78 1071.49 837.67C1071.62 836.56 1071.69 835.64 1071.69 834.9C1071.69 833.05 1071.3 831.61 1070.54 830.58C1069.77 829.55 1068.46 829.03 1066.61 829.03C1063.7 829.03 1061.53 830.49 1060.1 833.4C1059.78 834.03 1059.48 834.87 1059.19 835.9C1058.9 836.93 1058.64 838.03 1058.4 839.19C1058.16 840.35 1057.98 841.49 1057.85 842.6C1057.72 843.71 1057.65 844.64 1057.65 845.37C1057.65 847.22 1058.03 848.66 1058.8 849.69C1059.57 850.73 1060.88 851.24 1062.73 851.24Z" fill="#ffffff" fill-rule="nonzero" opacity="1" stroke="none"/>
<path d="M1102.39 820.94C1102.97 820.94 1103.21 821.21 1103.11 821.74L1099.14 843.92C1098.72 846.15 1098.88 847.93 1099.62 849.25C1100.36 850.57 1101.67 851.24 1103.52 851.24C1105.38 851.24 1106.94 850.59 1108.19 849.29C1109.44 847.99 1110.27 846.23 1110.7 844L1114.61 821.74C1114.71 821.21 1114.98 820.94 1115.4 820.94L1124.52 820.94C1125.1 820.94 1125.34 821.21 1125.23 821.73L1118.65 858.53C1118.54 859.06 1118.25 859.32 1117.78 859.32L1108.74 859.32C1108.21 859.32 1108 859.06 1108.11 858.53L1108.59 855.68L1108.51 855.68C1107.29 857 1105.85 858.09 1104.19 858.93C1102.53 859.78 1100.53 860.2 1098.2 860.2C1096.14 860.2 1094.39 859.85 1092.96 859.17C1091.53 858.49 1090.41 857.51 1089.59 856.24C1088.77 854.97 1088.25 853.47 1088.04 851.72C1087.83 849.98 1087.91 848.05 1088.28 845.93L1092.57 821.74C1092.67 821.21 1092.94 820.95 1093.36 820.95L1102.39 820.95L1102.39 820.94Z" fill="#ffffff" fill-rule="nonzero" opacity="1" stroke="none"/>
<path d="M1143.16 860.21C1139.3 860.21 1136.02 859.59 1133.32 858.34C1130.62 857.1 1128.51 855.71 1126.97 854.18C1126.86 854.07 1126.83 853.9 1126.85 853.66C1126.88 853.42 1126.97 853.22 1127.13 853.06L1132.84 847.74C1133.26 847.42 1133.63 847.42 1133.95 847.74C1135.43 849.01 1137.07 850 1138.87 850.72C1140.67 851.43 1142.57 851.79 1144.58 851.79C1146.69 851.79 1148.35 851.31 1149.54 850.36C1150.73 849.41 1151.33 848.35 1151.33 847.19C1151.33 846.29 1151 845.61 1150.34 845.16C1149.68 844.71 1148.5 844.41 1146.81 844.25L1142.77 843.85C1139.39 843.48 1136.79 842.46 1135 840.8C1133.2 839.14 1132.3 836.95 1132.3 834.26C1132.3 831.99 1132.73 829.96 1133.61 828.19C1134.48 826.42 1135.69 824.94 1137.22 823.75C1138.75 822.56 1140.58 821.65 1142.69 821.01C1144.8 820.37 1147.1 820.06 1149.59 820.06C1152.6 820.06 1155.37 820.54 1157.88 821.49C1160.39 822.44 1162.36 823.58 1163.79 824.9C1164.11 825.27 1164.08 825.64 1163.71 826.01L1158.63 831.17C1158.26 831.54 1157.89 831.59 1157.52 831.33C1156.36 830.49 1154.99 829.77 1153.44 829.19C1151.88 828.61 1150.15 828.32 1148.24 828.32C1146.44 828.32 1145.05 828.72 1144.08 829.51C1143.1 830.3 1142.61 831.23 1142.61 832.29C1142.61 833.08 1142.89 833.7 1143.44 834.15C1144 834.6 1145.17 834.93 1146.97 835.14L1150.94 835.54C1154.75 835.96 1157.5 837.01 1159.19 838.67C1160.88 840.33 1161.73 842.46 1161.73 845.05C1161.73 847.32 1161.31 849.4 1160.46 851.28C1159.61 853.16 1158.4 854.76 1156.81 856.08C1155.22 857.4 1153.28 858.42 1150.98 859.13C1148.67 859.85 1146.07 860.21 1143.16 860.21Z" fill="#ffffff" fill-rule="nonzero" opacity="1" stroke="none"/>
<path d="M1167.67 859.33C1167.09 859.33 1166.85 859.07 1166.95 858.54L1173.46 821.74C1173.57 821.21 1173.86 820.95 1174.33 820.95L1183.45 820.95C1183.98 820.95 1184.19 821.22 1184.09 821.74L1177.58 858.54C1177.47 859.07 1177.21 859.33 1176.79 859.33L1167.67 859.33ZM1175.44 814.52C1174.91 814.52 1174.7 814.26 1174.8 813.73L1176.23 806.2C1176.33 805.67 1176.63 805.41 1177.1 805.41L1186.22 805.41C1186.75 805.41 1186.96 805.67 1186.85 806.2L1185.5 813.73C1185.39 814.26 1185.1 814.52 1184.63 814.52L1175.44 814.52Z" fill="#ffffff" fill-rule="nonzero" opacity="1" stroke="none"/>
<path d="M1210.1 859.33C1209.57 859.33 1209.36 859.06 1209.47 858.53L1213.35 836.43C1213.72 834.15 1213.55 832.35 1212.83 831.02C1212.12 829.7 1210.81 829.03 1208.9 829.03C1207.05 829.03 1205.49 829.68 1204.22 830.98C1202.95 832.28 1202.1 834.04 1201.68 836.27L1197.79 858.54C1197.68 859.07 1197.42 859.34 1197 859.34L1187.88 859.34C1187.3 859.34 1187.06 859.08 1187.16 858.55L1193.67 821.75C1193.78 821.22 1194.07 820.96 1194.54 820.96L1203.66 820.96C1204.19 820.96 1204.4 821.23 1204.3 821.75L1203.74 824.6L1203.82 824.6C1204.93 823.33 1206.36 822.26 1208.1 821.39C1209.85 820.52 1211.91 820.08 1214.29 820.08C1216.35 820.08 1218.11 820.44 1219.56 821.15C1221.01 821.86 1222.15 822.86 1222.97 824.12C1223.79 825.39 1224.32 826.9 1224.56 828.64C1224.8 830.39 1224.73 832.29 1224.36 834.35L1219.99 858.54C1219.88 859.07 1219.59 859.33 1219.12 859.33C1219.12 859.33 1210.1 859.33 1210.1 859.33Z" fill="#ffffff" fill-rule="nonzero" opacity="1" stroke="none"/>
<path d="M1245 860.21C1240.29 860.21 1236.64 859.02 1234.05 856.64C1231.46 854.26 1230.17 850.77 1230.17 846.17C1230.17 845.01 1230.23 843.74 1230.37 842.37C1230.5 840.99 1230.7 839.62 1230.96 838.25C1231.23 836.87 1231.56 835.53 1231.95 834.2C1232.35 832.88 1232.81 831.69 1233.34 830.63C1235.03 827.19 1237.32 824.57 1240.2 822.78C1243.08 820.99 1246.74 820.08 1251.19 820.08C1253.2 820.08 1255.08 820.37 1256.82 820.95C1258.56 821.53 1260.07 822.39 1261.34 823.53C1262.61 824.67 1263.6 826.07 1264.31 827.73C1265.03 829.4 1265.38 831.34 1265.38 833.56C1265.38 834.62 1265.32 835.82 1265.18 837.17C1265.05 838.52 1264.77 840.3 1264.35 842.52C1264.24 843.05 1263.93 843.31 1263.4 843.31L1240.96 843.31C1240.64 843.31 1240.46 843.47 1240.4 843.79C1240.35 844.05 1240.32 844.45 1240.32 844.98C1240.32 847.41 1240.92 849.13 1242.11 850.14C1243.3 851.14 1245.01 851.65 1247.23 851.65C1248.92 851.65 1250.56 851.29 1252.15 850.58C1253.73 849.87 1255.16 848.98 1256.43 847.92C1256.85 847.55 1257.25 847.55 1257.62 847.92L1261.5 852.6C1261.87 853.02 1261.84 853.45 1261.42 853.87C1259.41 855.72 1257.05 857.24 1254.36 858.43C1251.67 859.61 1248.55 860.21 1245 860.21ZM1254.6 836.25C1254.86 836.25 1255.05 836.09 1255.16 835.77C1255.32 834.98 1255.4 834.26 1255.4 833.63C1255.4 830.04 1253.55 828.23 1249.85 828.23C1248.32 828.23 1246.94 828.6 1245.73 829.34C1244.51 830.08 1243.56 831.14 1242.88 832.51C1242.61 832.99 1242.41 833.46 1242.28 833.94C1242.15 834.42 1242.03 835 1241.92 835.68C1241.87 836.05 1241.97 836.24 1242.24 836.24L1254.6 836.24L1254.6 836.25Z" fill="#ffffff" fill-rule="nonzero" opacity="1" stroke="none"/>
<path d="M1284.18 860.21C1280.32 860.21 1277.04 859.59 1274.34 858.34C1271.64 857.1 1269.53 855.71 1267.99 854.18C1267.88 854.07 1267.84 853.9 1267.87 853.66C1267.9 853.42 1267.99 853.22 1268.15 853.06L1273.86 847.74C1274.28 847.42 1274.65 847.42 1274.97 847.74C1276.45 849.01 1278.09 850 1279.89 850.72C1281.69 851.43 1283.59 851.79 1285.6 851.79C1287.71 851.79 1289.37 851.31 1290.56 850.36C1291.75 849.41 1292.35 848.35 1292.35 847.19C1292.35 846.29 1292.02 845.61 1291.36 845.16C1290.7 844.71 1289.52 844.41 1287.83 844.25L1283.79 843.85C1280.41 843.48 1277.81 842.46 1276.02 840.8C1274.22 839.14 1273.32 836.95 1273.32 834.26C1273.32 831.99 1273.75 829.96 1274.63 828.19C1275.5 826.42 1276.71 824.94 1278.24 823.75C1279.77 822.56 1281.6 821.65 1283.71 821.01C1285.82 820.37 1288.12 820.06 1290.61 820.06C1293.62 820.06 1296.39 820.54 1298.9 821.49C1301.41 822.44 1303.38 823.58 1304.81 824.9C1305.13 825.27 1305.1 825.64 1304.73 826.01L1299.65 831.17C1299.28 831.54 1298.91 831.59 1298.54 831.33C1297.38 830.49 1296.01 829.77 1294.46 829.19C1292.9 828.61 1291.17 828.32 1289.26 828.32C1287.46 828.32 1286.07 828.72 1285.1 829.51C1284.12 830.3 1283.63 831.23 1283.63 832.29C1283.63 833.08 1283.91 833.7 1284.46 834.15C1285.02 834.6 1286.19 834.93 1287.99 835.14L1291.96 835.54C1295.77 835.96 1298.52 837.01 1300.21 838.67C1301.9 840.33 1302.75 842.46 1302.75 845.05C1302.75 847.32 1302.33 849.4 1301.48 851.28C1300.63 853.16 1299.42 854.76 1297.83 856.08C1296.24 857.4 1294.3 858.42 1292 859.13C1289.69 859.85 1287.09 860.21 1284.18 860.21Z" fill="#ffffff" fill-rule="nonzero" opacity="1" stroke="none"/>
<path d="M1322.82 860.21C1318.96 860.21 1315.68 859.59 1312.98 858.34C1310.28 857.1 1308.17 855.71 1306.63 854.18C1306.52 854.07 1306.48 853.9 1306.51 853.66C1306.54 853.42 1306.63 853.22 1306.79 853.06L1312.5 847.74C1312.92 847.42 1313.29 847.42 1313.61 847.74C1315.09 849.01 1316.73 850 1318.53 850.72C1320.33 851.43 1322.23 851.79 1324.24 851.79C1326.35 851.79 1328.01 851.31 1329.2 850.36C1330.39 849.41 1330.99 848.35 1330.99 847.19C1330.99 846.29 1330.66 845.61 1330 845.16C1329.34 844.71 1328.16 844.41 1326.47 844.25L1322.43 843.85C1319.05 843.48 1316.45 842.46 1314.66 840.8C1312.86 839.14 1311.96 836.95 1311.96 834.26C1311.96 831.99 1312.4 829.96 1313.27 828.19C1314.14 826.42 1315.35 824.94 1316.88 823.75C1318.41 822.56 1320.24 821.65 1322.35 821.01C1324.46 820.37 1326.76 820.06 1329.25 820.06C1332.26 820.06 1335.03 820.54 1337.54 821.49C1340.05 822.44 1342.02 823.58 1343.45 824.9C1343.77 825.27 1343.74 825.64 1343.37 826.01L1338.29 831.17C1337.92 831.54 1337.55 831.59 1337.18 831.33C1336.02 830.49 1334.65 829.77 1333.1 829.19C1331.54 828.61 1329.81 828.32 1327.9 828.32C1326.1 828.32 1324.71 828.72 1323.74 829.51C1322.76 830.3 1322.27 831.23 1322.27 832.29C1322.27 833.08 1322.55 833.7 1323.1 834.15C1323.66 834.6 1324.83 834.93 1326.63 835.14L1330.6 835.54C1334.41 835.96 1337.16 837.01 1338.85 838.67C1340.54 840.33 1341.39 842.46 1341.39 845.05C1341.39 847.32 1340.97 849.4 1340.12 851.28C1339.27 853.16 1338.06 854.76 1336.47 856.08C1334.88 857.4 1332.94 858.42 1330.64 859.13C1328.33 859.85 1325.72 860.21 1322.82 860.21Z" fill="#ffffff" fill-rule="nonzero" opacity="1" stroke="none"/>
<path d="M1386.98 860.21C1383.86 860.21 1381.1 859.74 1378.69 858.82C1376.28 857.9 1374.31 856.55 1372.78 854.78C1371.25 853.01 1370.2 850.81 1369.65 848.19C1369.1 845.57 1369.11 842.6 1369.69 839.27L1375.56 806.19C1375.66 805.66 1375.93 805.4 1376.35 805.4L1385.95 805.4C1386.53 805.4 1386.77 805.66 1386.66 806.19L1380.71 839.9C1380.13 843.28 1380.51 845.86 1381.86 847.63C1383.21 849.4 1385.23 850.29 1387.93 850.29C1390.57 850.29 1392.74 849.55 1394.43 848.07C1396.12 846.59 1397.34 843.86 1398.08 839.9L1404.11 806.19C1404.22 805.66 1404.51 805.4 1404.98 805.4L1414.5 805.4C1415.08 805.4 1415.32 805.66 1415.21 806.19L1409.18 840.06C1408.54 843.81 1407.58 846.97 1406.28 849.54C1404.98 852.1 1403.41 854.18 1401.56 855.77C1399.71 857.35 1397.55 858.49 1395.1 859.18C1392.65 859.86 1389.94 860.21 1386.98 860.21Z" fill="#ffffff" fill-rule="nonzero" opacity="1" stroke="none"/>
<path d="M1438.38 859.33C1437.85 859.33 1437.64 859.06 1437.75 858.53L1441.63 836.43C1442 834.15 1441.83 832.35 1441.11 831.02C1440.4 829.7 1439.09 829.03 1437.18 829.03C1435.33 829.03 1433.77 829.68 1432.5 830.98C1431.23 832.28 1430.38 834.04 1429.96 836.27L1426.07 858.54C1425.96 859.07 1425.7 859.34 1425.28 859.34L1416.16 859.34C1415.58 859.34 1415.34 859.08 1415.44 858.55L1421.95 821.75C1422.06 821.22 1422.35 820.96 1422.82 820.96L1431.94 820.96C1432.47 820.96 1432.68 821.23 1432.58 821.75L1432.02 824.6L1432.1 824.6C1433.21 823.33 1434.64 822.26 1436.38 821.39C1438.13 820.52 1440.19 820.08 1442.57 820.08C1444.63 820.08 1446.39 820.44 1447.84 821.15C1449.29 821.86 1450.43 822.86 1451.25 824.12C1452.07 825.39 1452.6 826.9 1452.84 828.64C1453.08 830.39 1453.01 832.29 1452.64 834.35L1448.27 858.54C1448.16 859.07 1447.87 859.33 1447.4 859.33C1447.4 859.33 1438.38 859.33 1438.38 859.33Z" fill="#ffffff" fill-rule="nonzero" opacity="1" stroke="none"/>
<path d="M1458.45 859.33C1457.87 859.33 1457.63 859.07 1457.73 858.54L1464.24 821.74C1464.35 821.21 1464.64 820.95 1465.11 820.95L1474.23 820.95C1474.76 820.95 1474.97 821.22 1474.87 821.74L1468.36 858.54C1468.25 859.07 1467.99 859.33 1467.57 859.33L1458.45 859.33ZM1466.22 814.52C1465.69 814.52 1465.48 814.26 1465.58 813.73L1467.01 806.2C1467.11 805.67 1467.41 805.41 1467.88 805.41L1477 805.41C1477.53 805.41 1477.74 805.67 1477.63 806.2L1476.28 813.73C1476.17 814.26 1475.88 814.52 1475.41 814.52L1466.22 814.52Z" fill="#ffffff" fill-rule="nonzero" opacity="1" stroke="none"/>
<path d="M1476.13 873.61C1475.6 873.61 1475.39 873.34 1475.5 872.82L1484.46 821.74C1484.57 821.21 1484.86 820.95 1485.33 820.95L1494.45 820.95C1494.98 820.95 1495.19 821.22 1495.09 821.74L1494.61 824.67L1494.69 824.67C1495.75 823.3 1497.15 822.19 1498.89 821.34C1500.64 820.49 1502.72 820.07 1505.16 820.07C1508.81 820.07 1511.56 821.2 1513.41 823.44C1515.26 825.69 1516.19 828.77 1516.19 832.68C1516.19 833.95 1516.1 835.42 1515.91 837.08C1515.72 838.75 1515.46 840.45 1515.12 842.2C1514.78 843.94 1514.37 845.64 1513.89 847.27C1513.41 848.91 1512.86 850.34 1512.23 851.56C1510.69 854.68 1508.78 856.9 1506.48 858.22C1504.18 859.54 1501.44 860.2 1498.27 860.2C1495.73 860.2 1493.74 859.73 1492.28 858.81C1490.82 857.89 1489.81 856.79 1489.22 855.52L1489.14 855.52L1486.13 872.81C1486.02 873.34 1485.73 873.6 1485.26 873.6L1476.13 873.6L1476.13 873.61ZM1496.36 851.24C1499.27 851.24 1501.44 849.79 1502.87 846.87C1503.19 846.24 1503.49 845.39 1503.78 844.33C1504.07 843.27 1504.33 842.18 1504.57 841.04C1504.81 839.9 1504.99 838.78 1505.12 837.67C1505.25 836.56 1505.32 835.64 1505.32 834.9C1505.32 833.05 1504.93 831.61 1504.17 830.58C1503.4 829.55 1502.09 829.03 1500.24 829.03C1497.33 829.03 1495.16 830.49 1493.73 833.4C1493.41 834.03 1493.11 834.87 1492.82 835.9C1492.53 836.93 1492.27 838.03 1492.03 839.19C1491.79 840.35 1491.61 841.49 1491.48 842.6C1491.35 843.71 1491.28 844.64 1491.28 845.37C1491.28 847.22 1491.66 848.66 1492.43 849.69C1493.2 850.73 1494.51 851.24 1496.36 851.24Z" fill="#ffffff" fill-rule="nonzero" opacity="1" stroke="none"/>
<path d="M1535.54 860.21C1530.83 860.21 1527.18 859.02 1524.59 856.64C1522 854.26 1520.71 850.77 1520.71 846.17C1520.71 845.01 1520.77 843.74 1520.91 842.37C1521.04 840.99 1521.24 839.62 1521.5 838.25C1521.77 836.87 1522.1 835.53 1522.49 834.2C1522.89 832.88 1523.35 831.69 1523.88 830.63C1525.57 827.19 1527.86 824.57 1530.74 822.78C1533.62 820.98 1537.28 820.08 1541.73 820.08C1543.74 820.08 1545.62 820.37 1547.36 820.95C1549.1 821.53 1550.61 822.39 1551.88 823.53C1553.15 824.67 1554.14 826.07 1554.85 827.73C1555.57 829.4 1555.92 831.34 1555.92 833.56C1555.92 834.62 1555.86 835.82 1555.72 837.17C1555.59 838.52 1555.31 840.3 1554.89 842.52C1554.78 843.05 1554.47 843.31 1553.94 843.31L1531.5 843.31C1531.18 843.31 1531 843.47 1530.94 843.79C1530.89 844.05 1530.86 844.45 1530.86 844.98C1530.86 847.41 1531.46 849.13 1532.65 850.14C1533.84 851.14 1535.55 851.65 1537.77 851.65C1539.46 851.65 1541.1 851.29 1542.69 850.58C1544.27 849.87 1545.7 848.98 1546.97 847.92C1547.39 847.55 1547.79 847.55 1548.16 847.92L1552.04 852.6C1552.41 853.02 1552.38 853.45 1551.96 853.87C1549.95 855.72 1547.59 857.24 1544.9 858.43C1542.21 859.61 1539.09 860.21 1535.54 860.21ZM1545.14 836.25C1545.4 836.25 1545.59 836.09 1545.7 835.77C1545.86 834.98 1545.94 834.26 1545.94 833.63C1545.94 830.04 1544.09 828.23 1540.39 828.23C1538.86 828.23 1537.48 828.6 1536.27 829.34C1535.05 830.08 1534.1 831.14 1533.42 832.51C1533.15 832.99 1532.95 833.46 1532.82 833.94C1532.69 834.42 1532.57 835 1532.46 835.68C1532.41 836.05 1532.51 836.24 1532.78 836.24L1545.14 836.24L1545.14 836.25Z" fill="#ffffff" fill-rule="nonzero" opacity="1" stroke="none"/>
<path d="M1560.61 859.33C1560.03 859.33 1559.79 859.07 1559.89 858.54L1566.4 821.74C1566.51 821.21 1566.8 820.95 1567.27 820.95L1576.39 820.95C1576.92 820.95 1577.13 821.22 1577.03 821.74L1576.39 825.15L1576.47 825.15C1577.63 823.56 1579.1 822.32 1580.87 821.42C1582.64 820.52 1584.61 820.07 1586.78 820.07C1588.1 820.07 1589.29 820.27 1590.35 820.67C1591.41 821.07 1592.25 821.64 1592.89 822.38C1593.21 822.8 1593.23 823.17 1592.97 823.49L1587.57 831.19C1587.2 831.56 1586.83 831.61 1586.46 831.35C1585.72 830.82 1584.95 830.4 1584.16 830.08C1583.37 829.76 1582.5 829.6 1581.54 829.6C1579.48 829.6 1577.84 830.34 1576.63 831.82C1575.41 833.3 1574.57 835.44 1574.09 838.25L1570.52 858.55C1570.41 859.08 1570.15 859.34 1569.73 859.34L1560.61 859.34L1560.61 859.33Z" fill="#ffffff" fill-rule="nonzero" opacity="1" stroke="none"/>
</g>
</svg>
