<?xml version="1.0" encoding="UTF-8" standalone="no"?>
<!DOCTYPE svg PUBLIC "-//W3C//DTD SVG 1.1//EN" "http://www.w3.org/Graphics/SVG/1.1/DTD/svg11.dtd">
<!-- Created with Vectornator (http://vectornator.io/) -->
<svg height="100%" stroke-miterlimit="10" style="fill-rule:nonzero;clip-rule:evenodd;stroke-linecap:round;stroke-linejoin:round;" version="1.1" viewBox="235.214 235.095 50 49.9595" width="100%" xml:space="preserve" xmlns="http://www.w3.org/2000/svg" xmlns:vectornator="http://vectornator.io" xmlns:xlink="http://www.w3.org/1999/xlink">
<defs/>
<clipPath id="ArtboardFrame">
<rect height="49.9595" width="50" x="235.214" y="235.095"/>
</clipPath>
<g clip-path="url(#ArtboardFrame)" id="Layer" vectornator:layerName="Layer">
<path d="M258.42 235.129C257.677 235.182 256.88 235.28 256.031 235.421C255.181 235.563 254.216 235.793 253.136 236.112C252.057 236.43 251.216 236.714 250.614 236.961C250.012 237.209 249.34 237.528 248.596 237.917C247.853 238.307 247.145 238.723 246.472 239.165C245.799 239.608 245.136 240.094 244.481 240.626C243.826 241.157 243.171 241.75 242.516 242.404C241.861 243.059 241.25 243.741 240.684 244.449C240.117 245.157 239.622 245.838 239.197 246.493C238.772 247.148 238.4 247.777 238.082 248.379C237.763 248.98 237.427 249.715 237.073 250.582C236.719 251.45 236.418 252.317 236.17 253.184C235.922 254.052 235.736 254.822 235.613 255.494C235.489 256.167 235.391 256.866 235.32 257.592C235.25 258.318 235.214 259.132 235.214 260.035C235.214 260.937 235.259 261.813 235.347 262.663C235.436 263.513 235.568 264.362 235.745 265.212C235.922 266.062 236.135 266.876 236.383 267.655C236.63 268.434 236.914 269.195 237.232 269.938C237.551 270.682 237.923 271.434 238.347 272.195C238.772 272.956 239.206 273.655 239.648 274.293C240.091 274.93 240.533 275.514 240.976 276.045C241.418 276.576 241.932 277.134 242.516 277.718C243.1 278.302 243.622 278.789 244.082 279.178C244.543 279.567 245.153 280.028 245.914 280.559C246.676 281.09 247.463 281.577 248.278 282.019C249.092 282.462 249.791 282.807 250.375 283.055C250.959 283.302 251.596 283.541 252.287 283.771C252.977 284.002 253.747 284.214 254.597 284.409C255.446 284.603 256.314 284.754 257.199 284.86C258.084 284.966 258.854 285.028 259.509 285.046C260.164 285.064 260.836 285.055 261.527 285.019C262.217 284.984 263.031 284.895 263.969 284.754C264.908 284.612 265.722 284.453 266.412 284.276C267.102 284.099 267.908 283.842 268.828 283.506C269.749 283.17 270.616 282.798 271.43 282.391C272.245 281.984 272.997 281.559 273.687 281.116C274.378 280.674 275.068 280.178 275.758 279.629C276.449 279.081 277.068 278.541 277.617 278.01C278.166 277.479 278.732 276.868 279.316 276.178C279.9 275.487 280.405 274.833 280.83 274.213C281.254 273.593 281.723 272.806 282.237 271.85C282.75 270.894 283.113 270.159 283.325 269.646C283.538 269.133 283.759 268.522 283.989 267.814C284.219 267.106 284.423 266.363 284.6 265.584C284.777 264.805 284.918 263.973 285.025 263.088C285.131 262.203 285.193 261.38 285.21 260.619C285.228 259.858 285.184 258.902 285.078 257.751C284.972 256.601 284.786 255.459 284.52 254.326C284.255 253.193 283.998 252.282 283.75 251.591C283.502 250.901 283.175 250.131 282.768 249.281C282.361 248.432 281.945 247.662 281.52 246.971C281.095 246.281 280.856 245.927 280.803 245.909C280.75 245.892 280.307 246.307 279.475 247.157C278.643 248.007 278.369 248.653 278.652 249.095C278.936 249.538 279.228 250.069 279.529 250.688C279.829 251.308 280.113 251.981 280.378 252.706C280.644 253.432 280.874 254.202 281.068 255.016C281.263 255.831 281.405 256.583 281.493 257.273C281.582 257.964 281.635 258.742 281.653 259.61C281.67 260.477 281.653 261.229 281.6 261.867C281.546 262.504 281.467 263.132 281.361 263.752C281.254 264.371 281.122 264.982 280.962 265.584C280.803 266.186 280.617 266.779 280.405 267.363C280.192 267.947 279.829 268.743 279.316 269.752C278.803 270.761 278.227 271.708 277.59 272.593C276.953 273.478 276.218 274.337 275.386 275.169C274.555 276.001 273.926 276.585 273.501 276.921C273.077 277.258 272.581 277.612 272.014 277.983C271.448 278.355 270.846 278.709 270.209 279.045C269.572 279.382 268.926 279.683 268.271 279.948C267.616 280.214 266.917 280.453 266.173 280.665C265.43 280.877 264.775 281.037 264.208 281.143C263.642 281.249 262.96 281.338 262.164 281.408C261.367 281.479 260.677 281.515 260.093 281.515C259.509 281.515 258.925 281.488 258.341 281.435C257.756 281.382 257.075 281.284 256.296 281.143C255.517 281.001 254.588 280.753 253.508 280.399C252.428 280.045 251.349 279.585 250.269 279.019C249.189 278.452 248.154 277.789 247.162 277.027C246.171 276.266 245.383 275.585 244.799 274.983C244.215 274.381 243.728 273.832 243.339 273.337C242.95 272.841 242.56 272.292 242.171 271.691C241.781 271.089 241.427 270.478 241.109 269.859C240.79 269.239 240.507 268.619 240.259 268C240.011 267.38 239.808 266.805 239.648 266.274C239.489 265.743 239.303 264.84 239.091 263.566C238.878 262.291 238.781 261.026 238.799 259.769C238.816 258.512 238.87 257.583 238.958 256.981C239.047 256.379 239.17 255.742 239.33 255.069C239.489 254.397 239.79 253.485 240.232 252.335C240.675 251.184 241.047 250.334 241.348 249.786C241.649 249.237 242.029 248.626 242.489 247.954C242.95 247.281 243.366 246.723 243.737 246.281C244.109 245.838 244.543 245.369 245.038 244.874C245.534 244.378 245.994 243.953 246.419 243.599C246.844 243.245 247.348 242.865 247.932 242.458C248.517 242.05 249.34 241.573 250.402 241.024C251.464 240.475 252.287 240.094 252.871 239.882C253.455 239.67 254.048 239.484 254.65 239.324C255.252 239.165 256.163 239.006 257.385 238.847C258.606 238.687 259.686 238.616 260.624 238.634C261.562 238.652 262.367 238.705 263.04 238.793C263.713 238.882 264.456 239.024 265.27 239.218C266.085 239.413 266.855 239.643 267.58 239.909C268.306 240.174 268.979 240.457 269.598 240.758C270.218 241.059 270.749 241.351 271.191 241.634C271.634 241.918 272.28 241.643 273.13 240.811C273.979 239.979 274.395 239.537 274.378 239.484C274.36 239.431 274.006 239.192 273.315 238.767C272.625 238.342 271.855 237.926 271.006 237.519C270.156 237.112 269.386 236.784 268.696 236.537C268.005 236.289 267.244 236.059 266.412 235.846C265.58 235.634 264.899 235.483 264.368 235.395C263.837 235.306 262.899 235.227 261.553 235.156C260.208 235.085 259.164 235.076 258.42 235.129ZM272.758 236.404C272.758 236.634 272.776 236.767 272.811 236.802C272.846 236.838 273.138 237.006 273.687 237.307C274.236 237.608 274.926 238.068 275.758 238.687C276.174 238.997 276.59 239.307 277.006 239.617C276.422 240.218 275.838 240.82 275.254 241.422C274.67 242.024 274.085 242.626 273.501 243.228C273.785 243.467 274.068 243.705 274.351 243.944C274.917 244.422 275.51 245.015 276.13 245.723C276.44 246.077 276.749 246.431 277.059 246.785C277.661 246.201 278.263 245.617 278.865 245.033C279.467 244.449 280.068 243.865 280.67 243.281C280.891 243.564 281.113 243.847 281.334 244.13C281.777 244.697 282.246 245.396 282.741 246.228C283.237 247.06 283.609 247.485 283.856 247.502C283.98 247.511 284.104 247.52 284.228 247.529C284.228 245.617 284.228 243.705 284.228 241.794C284.228 239.882 284.228 237.97 284.228 236.059C282.316 236.059 280.405 236.059 278.493 236.059C276.581 236.059 274.67 236.059 272.758 236.059C272.758 236.174 272.758 236.289 272.758 236.404ZM252.446 257.618C251.968 257.725 251.561 257.91 251.225 258.176C250.888 258.441 250.667 258.698 250.561 258.946C250.455 259.194 250.402 259.468 250.402 259.769C250.402 260.07 250.446 260.335 250.534 260.566C250.623 260.796 250.8 261.035 251.065 261.282C251.331 261.53 251.694 261.725 252.154 261.867C252.614 262.008 253.128 262.07 253.694 262.052C254.26 262.035 254.73 261.955 255.101 261.813C255.473 261.672 255.756 261.513 255.951 261.336C256.146 261.159 256.305 260.928 256.429 260.645C256.553 260.362 256.615 260.07 256.615 259.769C256.615 259.468 256.57 259.211 256.482 258.999C256.393 258.787 256.261 258.583 256.084 258.388C255.907 258.194 255.703 258.034 255.473 257.91C255.243 257.787 254.995 257.689 254.73 257.618C254.464 257.548 254.137 257.503 253.747 257.486C253.358 257.468 252.924 257.512 252.446 257.618ZM274.855 257.618C274.378 257.725 274.059 257.822 273.9 257.91C273.74 257.999 273.572 258.132 273.395 258.309C273.218 258.486 273.094 258.636 273.023 258.76C272.953 258.884 272.891 259.07 272.838 259.318C272.784 259.565 272.767 259.787 272.784 259.981C272.802 260.176 272.855 260.38 272.944 260.592C273.032 260.805 273.192 261.026 273.422 261.256C273.652 261.486 274.006 261.681 274.484 261.84C274.962 261.999 275.493 262.07 276.077 262.052C276.661 262.035 277.121 261.964 277.457 261.84C277.794 261.716 278.068 261.566 278.281 261.389C278.493 261.212 278.661 260.999 278.785 260.751C278.909 260.504 278.98 260.212 278.997 259.875C279.015 259.539 278.98 259.256 278.891 259.026C278.803 258.795 278.67 258.583 278.493 258.388C278.316 258.194 278.112 258.034 277.882 257.91C277.652 257.787 277.404 257.689 277.139 257.618C276.873 257.548 276.546 257.503 276.156 257.486C275.767 257.468 275.333 257.512 274.855 257.618ZM241.374 257.91C241.374 258.025 241.374 258.141 241.374 258.256C241.542 258.256 241.711 258.256 241.879 258.256C242.215 258.256 242.401 258.273 242.436 258.309C242.472 258.344 242.817 258.964 243.472 260.167C244.127 261.371 244.844 261.973 245.622 261.973C246.401 261.973 247.118 261.362 247.773 260.141C248.428 258.919 248.932 258.3 249.287 258.282C249.641 258.264 249.818 258.141 249.818 257.91C249.818 257.795 249.818 257.68 249.818 257.565C249.313 257.565 248.809 257.565 248.304 257.565C247.8 257.565 247.295 257.565 246.791 257.565C246.791 257.68 246.791 257.795 246.791 257.91C246.791 258.141 246.932 258.264 247.215 258.282C247.357 258.291 247.499 258.3 247.64 258.309C247.393 258.742 247.145 259.176 246.897 259.61C246.649 260.043 246.401 260.477 246.153 260.911C245.923 260.486 245.693 260.061 245.463 259.636C245.003 258.787 244.773 258.344 244.773 258.309C244.773 258.291 244.773 258.273 244.773 258.256C244.941 258.256 245.109 258.256 245.277 258.256C245.445 258.256 245.614 258.256 245.782 258.256C245.782 258.141 245.782 258.025 245.782 257.91C245.782 257.795 245.782 257.68 245.782 257.565C245.047 257.565 244.313 257.565 243.578 257.565C242.843 257.565 242.109 257.565 241.374 257.565C241.374 257.68 241.374 257.795 241.374 257.91ZM257.836 257.91C257.836 258.025 257.836 258.141 257.836 258.256C258.004 258.256 258.172 258.256 258.341 258.256C258.509 258.256 258.677 258.256 258.845 258.256C258.845 258.76 258.845 259.265 258.845 259.769C258.845 260.274 258.845 260.778 258.845 261.282C258.677 261.282 258.509 261.282 258.341 261.282C258.172 261.282 258.004 261.282 257.836 261.282C257.836 261.398 257.836 261.513 257.836 261.628C257.836 261.743 257.836 261.858 257.836 261.973C258.854 261.973 259.872 261.973 260.889 261.973C261.907 261.973 262.925 261.973 263.943 261.973C263.943 261.628 263.943 261.282 263.943 260.937C263.943 260.592 263.943 260.247 263.943 259.902C263.828 259.902 263.713 259.902 263.598 259.902C263.368 259.902 263.226 260.026 263.173 260.274C263.12 260.521 262.987 260.734 262.775 260.911C262.562 261.088 262.199 261.194 261.686 261.229C261.429 261.247 261.173 261.265 260.916 261.282C260.916 260.778 260.916 260.274 260.916 259.769C260.916 259.265 260.916 258.76 260.916 258.256C261.084 258.256 261.252 258.256 261.42 258.256C261.589 258.256 261.757 258.256 261.925 258.256C261.925 258.141 261.925 258.025 261.925 257.91C261.925 257.795 261.925 257.68 261.925 257.565C261.243 257.565 260.562 257.565 259.88 257.565C259.199 257.565 258.518 257.565 257.836 257.565C257.836 257.68 257.836 257.795 257.836 257.91ZM263.784 257.91C263.784 258.141 263.961 258.264 264.315 258.282C264.669 258.3 265.173 258.919 265.828 260.141C266.483 261.362 267.209 261.973 268.005 261.973C268.802 261.973 269.527 261.362 270.182 260.141C270.837 258.919 271.342 258.3 271.696 258.282C272.05 258.264 272.227 258.141 272.227 257.91C272.227 257.795 272.227 257.68 272.227 257.565C271.722 257.565 271.218 257.565 270.713 257.565C270.209 257.565 269.704 257.565 269.2 257.565C269.2 257.68 269.2 257.795 269.2 257.91C269.2 258.141 269.342 258.264 269.625 258.282C269.766 258.291 269.908 258.3 270.05 258.309C269.802 258.742 269.554 259.176 269.306 259.61C269.058 260.043 268.811 260.477 268.563 260.911C268.333 260.486 268.103 260.061 267.872 259.636C267.412 258.787 267.182 258.344 267.182 258.309C267.182 258.291 267.182 258.273 267.182 258.256C267.35 258.256 267.518 258.256 267.687 258.256C267.855 258.256 268.023 258.256 268.191 258.256C268.191 258.141 268.191 258.025 268.191 257.91C268.191 257.795 268.191 257.68 268.191 257.565C267.456 257.565 266.722 257.565 265.987 257.565C265.253 257.565 264.518 257.565 263.784 257.565C263.784 257.68 263.784 257.795 263.784 257.91ZM253.535 258.203C253.712 258.203 253.889 258.273 254.066 258.415C254.243 258.557 254.376 258.778 254.464 259.079C254.553 259.38 254.561 259.742 254.491 260.167C254.42 260.592 254.34 260.866 254.252 260.99C254.163 261.114 254.048 261.212 253.906 261.282C253.765 261.353 253.606 261.38 253.429 261.362C253.252 261.344 253.092 261.282 252.951 261.176C252.809 261.07 252.685 260.849 252.579 260.512C252.473 260.176 252.446 259.822 252.499 259.45C252.552 259.079 252.641 258.804 252.765 258.627C252.889 258.45 253.004 258.335 253.11 258.282C253.216 258.229 253.358 258.203 253.535 258.203ZM276.024 258.256C276.289 258.291 276.466 258.353 276.555 258.441C276.643 258.53 276.732 258.68 276.82 258.893C276.909 259.105 276.962 259.318 276.98 259.53C276.997 259.742 276.98 259.981 276.926 260.247C276.873 260.512 276.767 260.751 276.608 260.964C276.449 261.176 276.316 261.3 276.21 261.336C276.103 261.371 275.971 261.38 275.811 261.362C275.652 261.344 275.502 261.282 275.36 261.176C275.218 261.07 275.094 260.866 274.988 260.566C274.882 260.265 274.855 259.902 274.909 259.477C274.962 259.052 275.094 258.734 275.307 258.521C275.519 258.309 275.758 258.22 276.024 258.256Z" fill="#ffffff" fill-rule="nonzero" opacity="1" stroke="none" vectornator:layerName="Curve 1"/>
</g>
</svg>
